<svg width="32" height="32" viewBox="0 0 32 32" fill="none" xmlns="http://www.w3.org/2000/svg">
<g>
<path d="M27 0H5C2.243 0 0 2.243 0 5V7.5C0 8.19038 0.559625 8.75 1.25 8.75C1.94037 8.75 2.5 8.19038 2.5 7.5V5C2.5 3.6215 3.6215 2.5 5 2.5H27C28.3785 2.5 29.5 3.6215 29.5 5V27C29.5 28.3785 28.3785 29.5 27 29.5H5C3.6215 29.5 2.5 28.3785 2.5 27V24.5C2.5 23.8096 1.94037 23.25 1.25 23.25C0.559625 23.25 0 23.8096 0 24.5V27C0 29.757 2.243 32 5 32H27C29.757 32 32 29.757 32 27V5C32 2.243 29.757 0 27 0Z" fill="#FE573F"/>
<path d="M20.995 13.3478L16.321 8.67809C15.8326 8.19015 15.0411 8.19053 14.5532 8.6789C14.0653 9.16728 14.0656 9.95871 14.554 10.4467L19.2276 15.116C19.715 15.6033 19.715 16.3963 19.2276 16.8837C19.2258 16.8855 19.224 16.8874 19.2222 16.8892L14.5482 21.6215C14.0631 22.1127 14.068 22.9041 14.5591 23.3892C14.8027 23.6298 15.1201 23.7499 15.4375 23.7499C15.76 23.7499 16.0823 23.6258 16.3268 23.3783L20.9985 18.6485C22.4576 17.1861 22.4565 14.8094 20.995 13.3478Z" fill="#FE573F"/>
<path d="M14.5625 14.75H1.25C0.559625 14.75 0 15.3096 0 16C0 16.6904 0.559625 17.25 1.25 17.25H14.5625C15.2529 17.25 15.8125 16.6904 15.8125 16C15.8125 15.3096 15.2529 14.75 14.5625 14.75Z" fill="#FE573F"/>
</g>
</svg>
