<svg width="120" height="25" viewBox="0 0 120 25" fill="none" xmlns="http://www.w3.org/2000/svg">
<path d="M15.0341 11.6996C15.045 10.8564 15.2702 10.0296 15.6888 9.29618C16.1075 8.56276 16.7058 7.94655 17.4283 7.50488C16.9694 6.85308 16.3639 6.31668 15.66 5.93827C14.956 5.55987 14.1731 5.34989 13.3733 5.325C11.6672 5.14692 10.0132 6.34017 9.14378 6.34017C8.25756 6.34017 6.91898 5.34269 5.47754 5.37217C4.54519 5.40212 3.63653 5.67172 2.84011 6.1547C2.04369 6.63768 1.38667 7.31756 0.933061 8.1281C-1.03183 11.511 0.433805 16.4826 2.31604 19.2171C3.25777 20.5561 4.35838 22.0518 5.79851 21.9987C7.20777 21.9406 7.7341 21.1052 9.43518 21.1052C11.1205 21.1052 11.6143 21.9987 13.0836 21.965C14.5958 21.9406 15.5486 20.6201 16.4573 19.2684C17.1339 18.3143 17.6546 17.2599 18 16.1441C17.1215 15.7746 16.3717 15.1561 15.8443 14.3658C15.3169 13.5754 15.0351 12.6482 15.0341 11.6996Z" fill="black"/>
<path d="M12.2588 3.52654C13.0833 2.54231 13.4895 1.27724 13.3912 0C12.1315 0.131559 10.9679 0.730213 10.1323 1.67668C9.7237 2.13905 9.41078 2.67697 9.21139 3.25967C9.01201 3.84238 8.93007 4.45844 8.97027 5.07265C9.60033 5.0791 10.2236 4.94331 10.7933 4.67549C11.3629 4.40768 11.864 4.01483 12.2588 3.52654Z" fill="black"/>
<path d="M35.8621 17.2741H29.9343L28.5108 21.3568H26L31.6147 6.25183H34.2233L39.838 21.3568H37.2844L35.8621 17.2741ZM30.5483 15.3901H35.247L32.9307 8.7642H32.8658L30.5483 15.3901Z" fill="black"/>
<path d="M51.9639 15.8511C51.9639 19.2734 50.078 21.4721 47.2322 21.4721C46.5113 21.5088 45.7943 21.3475 45.1634 21.0067C44.5325 20.666 44.0131 20.1595 43.6647 19.5454H43.6109V25.0001H41.2836V10.3442H43.5363V12.1759H43.5791C43.9435 11.5647 44.4716 11.0609 45.1073 10.718C45.7431 10.3752 46.4626 10.2062 47.1893 10.229C50.067 10.229 51.9639 12.4384 51.9639 15.8511ZM49.5717 15.8511C49.5717 13.6215 48.3854 12.1557 46.5754 12.1557C44.7972 12.1557 43.6011 13.6524 43.6011 15.8511C43.6011 18.0701 44.7972 19.5561 46.5754 19.5561C48.3854 19.5561 49.5717 18.101 49.5717 15.8511H49.5717Z" fill="black"/>
<path d="M64.4437 15.8511C64.4437 19.2734 62.5573 21.4721 59.7114 21.4721C58.9905 21.5088 58.2736 21.3475 57.6426 21.0067C57.0117 20.666 56.4924 20.1595 56.144 19.5454H56.0901V25.0001H53.7628V10.3442H56.0155V12.1759H56.0583C56.4227 11.5647 56.9509 11.0609 57.5866 10.718C58.2223 10.3752 58.9418 10.2062 59.6686 10.229C62.5463 10.229 64.4437 12.4384 64.4437 15.8511ZM62.051 15.8511C62.051 13.6215 60.8647 12.1557 59.0547 12.1557C57.2765 12.1557 56.0804 13.6524 56.0804 15.8511C56.0804 18.0701 57.2765 19.5561 59.0547 19.5561C60.8647 19.5561 62.051 18.101 62.051 15.8511Z" fill="black"/>
<path d="M72.6903 17.1482C72.8627 18.6461 74.3609 19.6296 76.4081 19.6296C78.3698 19.6296 79.7811 18.6461 79.7811 17.2954C79.7811 16.123 78.9299 15.421 76.9145 14.9399L74.899 14.4683C72.0433 13.7984 70.7176 12.5012 70.7176 10.3963C70.7176 7.79012 73.056 6 76.3751 6C79.6625 6 81.9152 7.79012 81.9911 10.3963H79.6417C79.501 8.88889 78.2181 7.97899 76.3433 7.97899C74.4685 7.97899 73.1856 8.8996 73.1856 10.2395C73.1856 11.3074 74.005 11.9358 76.0094 12.4168L77.7228 12.8254C80.9136 13.5584 82.2381 14.8033 82.2381 17.0127C82.2381 19.8386 79.9217 21.6085 76.2356 21.6085C72.7868 21.6085 70.4583 19.8802 70.3079 17.1481L72.6903 17.1482Z" fill="black"/>
<path d="M87.2634 7.73792V10.3441H89.4195V12.1342H87.2634V18.2054C87.2634 19.1486 87.6951 19.5881 88.6429 19.5881C88.8989 19.5837 89.1544 19.5663 89.4085 19.5358V21.3152C88.9824 21.3925 88.5492 21.4276 88.1158 21.4197C85.8203 21.4197 84.9251 20.5823 84.9251 18.4465V12.1342H83.2765V10.3441H84.925V7.73792H87.2634Z" fill="black"/>
<path d="M90.6669 15.8511C90.6669 12.3861 92.7679 10.2087 96.0443 10.2087C99.3317 10.2087 101.423 12.3861 101.423 15.8511C101.423 19.3256 99.3427 21.4935 96.0443 21.4935C92.7471 21.4935 90.6669 19.3256 90.6669 15.8511ZM99.0516 15.8511C99.0516 13.4742 97.9301 12.0713 96.0443 12.0713C94.1585 12.0713 93.037 13.4849 93.037 15.8511C93.037 18.2375 94.1585 19.6297 96.0443 19.6297C97.9301 19.6297 99.0516 18.2375 99.0516 15.8511H99.0516Z" fill="black"/>
<path d="M103.342 10.3441H105.562V12.2185H105.615C105.766 11.6331 106.119 11.1157 106.615 10.7534C107.112 10.391 107.722 10.2058 108.343 10.2288C108.611 10.2279 108.878 10.2562 109.14 10.3132V12.4276C108.801 12.3271 108.448 12.281 108.094 12.291C107.756 12.2777 107.419 12.3356 107.106 12.4607C106.793 12.5859 106.512 12.7753 106.282 13.016C106.051 13.2567 105.877 13.543 105.771 13.8552C105.666 14.1674 105.631 14.4981 105.669 14.8247V21.3568H103.342L103.342 10.3441Z" fill="black"/>
<path d="M119.87 18.1223C119.557 20.1215 117.553 21.4935 114.988 21.4935C111.69 21.4935 109.643 19.347 109.643 15.9034C109.643 12.4491 111.701 10.2087 114.89 10.2087C118.027 10.2087 120 12.3018 120 15.6409V16.4153H111.992V16.5519C111.955 16.9572 112.007 17.3655 112.145 17.7497C112.283 18.1339 112.504 18.4852 112.792 18.7802C113.081 19.0752 113.43 19.3073 113.818 19.4609C114.206 19.6145 114.623 19.6862 115.042 19.6713C115.592 19.7213 116.144 19.5976 116.616 19.3185C117.087 19.0394 117.454 18.6199 117.66 18.1223L119.87 18.1223ZM112.003 14.8355H117.671C117.692 14.4711 117.635 14.1064 117.504 13.7643C117.373 13.4223 117.171 13.1102 116.91 12.8478C116.649 12.5853 116.334 12.3781 115.987 12.2392C115.639 12.1003 115.266 12.0326 114.89 12.0404C114.511 12.0382 114.136 12.109 113.785 12.2485C113.434 12.3881 113.116 12.5937 112.847 12.8536C112.579 13.1135 112.366 13.4224 112.221 13.7626C112.076 14.1027 112.002 14.4674 112.003 14.8355V14.8355Z" fill="black"/>
</svg>
