<svg width="28" height="28" viewBox="0 0 28 28" fill="none" xmlns="http://www.w3.org/2000/svg">
<path d="M20.2805 14.6856C20.2942 13.6271 20.5769 12.5893 21.1024 11.6687C21.6279 10.7481 22.379 9.97455 23.2859 9.42015C22.7097 8.60199 21.9497 7.92867 21.0661 7.45368C20.1826 6.97869 19.1998 6.71511 18.1958 6.68388C16.0542 6.46034 13.9781 7.95816 12.8867 7.95816C11.7743 7.95816 10.0941 6.70607 8.28471 6.74308C7.11438 6.78068 5.9738 7.1191 4.9741 7.72535C3.97439 8.3316 3.14967 9.18502 2.58028 10.2025C0.113854 14.4488 1.95359 20.6894 4.31626 24.1219C5.49836 25.8026 6.87989 27.6801 8.68761 27.6135C10.4566 27.5405 11.1172 26.4918 13.2525 26.4918C15.368 26.4918 15.9878 27.6135 17.8322 27.5712C19.7304 27.5405 20.9263 25.8829 22.067 24.1863C22.9163 22.9887 23.5699 21.6651 24.0035 20.2645C22.9007 19.8007 21.9596 19.0243 21.2975 18.0323C20.6355 17.0402 20.2818 15.8763 20.2805 14.6856Z" fill="black"/>
<path d="M16.7974 4.42721C17.8325 3.19161 18.3425 1.60345 18.219 0C16.6376 0.165159 15.1768 0.916709 14.1278 2.1049C13.6148 2.68537 13.222 3.36066 12.9717 4.09219C12.7214 4.82371 12.6185 5.59712 12.669 6.3682C13.46 6.3763 14.2425 6.20582 14.9576 5.86961C15.6727 5.5334 16.3018 5.04022 16.7974 4.42721Z" fill="black"/>
</svg>
