<svg width="24" height="24" viewBox="0 0 24 24" fill="none" xmlns="http://www.w3.org/2000/svg">
<path fill-rule="evenodd" clip-rule="evenodd" d="M3 4.5C3 4.22386 3.22386 4 3.5 4H20.5C20.7761 4 21 4.22386 21 4.5C21 4.77614 20.7761 5 20.5 5H3.5C3.22386 5 3 4.77614 3 4.5ZM3 11.5C3 11.7761 3.22386 12 3.5 12H20.5C20.7761 12 21 11.7761 21 11.5C21 11.2239 20.7761 11 20.5 11H3.5C3.22386 11 3 11.2239 3 11.5ZM3 18.5C3 18.7761 3.22386 19 3.5 19H20.5C20.7761 19 21 18.7761 21 18.5C21 18.2239 20.7761 18 20.5 18H3.5C3.22386 18 3 18.2239 3 18.5Z" fill="white"/>
</svg>
