<svg width="129" height="28" viewBox="0 0 129 28" fill="none" xmlns="http://www.w3.org/2000/svg">
<path d="M64.5491 10.9843C61.8637 10.9843 59.7377 13.0719 59.7377 15.9713C59.7377 18.7547 61.8637 20.9583 64.5491 20.9583C67.2346 20.9583 69.3605 18.8707 69.3605 15.9713C69.3605 12.9559 67.2346 10.9843 64.5491 10.9843ZM64.5491 18.8707C63.0945 18.8707 61.8637 17.595 61.8637 15.8553C61.8637 14.1157 63.0945 12.84 64.5491 12.84C66.0037 12.84 67.2346 13.9997 67.2346 15.8553C67.2346 17.595 66.0037 18.8707 64.5491 18.8707ZM54.143 10.9843C51.4576 10.9843 49.3316 13.0719 49.3316 15.9713C49.3316 18.7547 51.4576 20.9583 54.143 20.9583C56.8285 20.9583 58.9545 18.8707 58.9545 15.9713C58.9545 12.9559 56.8285 10.9843 54.143 10.9843ZM54.143 18.8707C52.6884 18.8707 51.4576 17.595 51.4576 15.8553C51.4576 14.1157 52.6884 12.84 54.143 12.84C55.5977 12.84 56.8285 13.9997 56.8285 15.8553C56.8285 17.595 55.5977 18.8707 54.143 18.8707ZM41.7229 12.492V14.5796H46.5343C46.4224 15.7394 45.9748 16.6672 45.4153 17.2471C44.744 17.9429 43.6251 18.7547 41.7229 18.7547C38.7017 18.7547 36.4639 16.3192 36.4639 13.1879C36.4639 10.0565 38.8136 7.62102 41.7229 7.62102C43.2894 7.62102 44.5202 8.31688 45.4153 9.12871L46.87 7.62102C45.6391 6.46126 44.0726 5.53345 41.8348 5.53345C37.8066 5.53345 34.3379 9.01274 34.3379 13.1879C34.3379 17.363 37.8066 20.8423 41.8348 20.8423C44.0726 20.8423 45.6391 20.1465 46.9819 18.6388C48.3246 17.2471 48.7721 15.2755 48.7721 13.7678C48.7721 13.3039 48.7722 12.84 48.6603 12.492H41.7229ZM92.5225 14.1157C92.0749 12.9559 90.956 10.9843 88.4943 10.9843C86.0327 10.9843 84.0186 12.9559 84.0186 15.9713C84.0186 18.7547 86.0327 20.9583 88.7181 20.9583C90.8441 20.9583 92.1868 19.5666 92.6344 18.7547L91.0679 17.595C90.5084 18.4068 89.837 18.9867 88.7181 18.9867C87.5992 18.9867 86.9278 18.5228 86.3684 17.479L92.7463 14.6956L92.5225 14.1157ZM86.0327 15.7394C86.0327 13.8837 87.4873 12.84 88.4943 12.84C89.2776 12.84 90.0608 13.3039 90.2846 13.8837L86.0327 15.7394ZM80.7737 20.4944H82.8997V5.99735H80.7737V20.4944ZM77.4169 12.0281C76.8574 11.4482 75.9623 10.8684 74.8433 10.8684C72.4936 10.8684 70.2557 13.0719 70.2557 15.8553C70.2557 18.6388 72.3817 20.7263 74.8433 20.7263C75.9623 20.7263 76.8574 20.1465 77.305 19.5666H77.4169V20.2624C77.4169 22.1181 76.4098 23.1618 74.8433 23.1618C73.6125 23.1618 72.7173 22.234 72.4936 21.4222L70.7033 22.234C71.2627 23.5098 72.6055 25.1334 74.9552 25.1334C77.4169 25.1334 79.431 23.6258 79.431 20.0305V11.2163H77.4169V12.0281ZM74.9552 18.8707C73.5006 18.8707 72.2698 17.595 72.2698 15.8553C72.2698 14.1157 73.5006 12.84 74.9552 12.84C76.4098 12.84 77.5288 14.1157 77.5288 15.8553C77.5288 17.595 76.4098 18.8707 74.9552 18.8707ZM102.257 5.99735H97.222V20.4944H99.348V15.0435H102.257C104.607 15.0435 106.845 13.3039 106.845 10.5204C106.845 7.737 104.607 5.99735 102.257 5.99735ZM102.369 12.9559H99.348V7.96895H102.369C103.936 7.96895 104.831 9.36067 104.831 10.4045C104.719 11.6802 103.824 12.9559 102.369 12.9559ZM115.237 10.8684C113.67 10.8684 112.104 11.5642 111.544 13.0719L113.447 13.8837C113.894 13.0719 114.566 12.84 115.349 12.84C116.468 12.84 117.475 13.5358 117.587 14.6956V14.8116C117.251 14.5796 116.356 14.2317 115.461 14.2317C113.447 14.2317 111.432 15.3914 111.432 17.479C111.432 19.4506 113.111 20.7263 114.901 20.7263C116.356 20.7263 117.027 20.0305 117.587 19.3346H117.699V20.4944H119.713V14.9275C119.489 12.3761 117.587 10.8684 115.237 10.8684ZM115.013 18.8707C114.342 18.8707 113.335 18.5228 113.335 17.595C113.335 16.4352 114.565 16.0873 115.573 16.0873C116.468 16.0873 116.915 16.3192 117.475 16.5512C117.251 17.9429 116.132 18.8707 115.013 18.8707ZM126.762 11.2163L124.412 17.479H124.3L121.839 11.2163H119.601L123.293 20.0305L121.167 24.9015H123.293L129 11.2163H126.762ZM107.964 20.4944H110.09V5.99735H107.964V20.4944Z" fill="black"/>
<path d="M0.561244 0.361938C0.224498 0.688521 0 1.23282 0 1.88599V25.9442C0 26.5974 0.224498 27.1417 0.561244 27.4683L0.673494 27.5771L14.5924 14.0784V13.9695V13.8607L0.561244 0.361938Z" fill="url(#paint0_linear)"/>
<path d="M19.1945 18.6506L14.5923 14.1873V13.9696V13.8608L19.1945 9.39746L19.3067 9.50632L24.8069 12.5544C26.3784 13.4253 26.3784 14.8405 24.8069 15.7114L19.1945 18.6506Z" fill="url(#paint1_linear)"/>
<path d="M19.3067 18.5418L14.5923 13.9696L0.561157 27.5772C1.1224 28.1215 1.90814 28.1215 2.91838 27.6861L19.3067 18.5418Z" fill="url(#paint2_linear)"/>
<path d="M19.3067 9.39744L2.91838 0.362003C1.90814 -0.182301 1.1224 -0.0734394 0.561157 0.470864L14.5923 13.9696L19.3067 9.39744Z" fill="url(#paint3_linear)"/>
<path opacity="0.2" d="M19.1945 18.4329L2.91838 27.3594C2.02039 27.9037 1.23465 27.7949 0.673407 27.3594L0.561157 27.4683L0.673407 27.5772C1.23465 28.0126 2.02039 28.1215 2.91838 27.5772L19.1945 18.4329Z" fill="black"/>
<path opacity="0.12" d="M0.560567 27.3595C0.223821 27.0329 0.111572 26.4886 0.111572 25.8354V25.9443C0.111572 26.5975 0.33607 27.1418 0.672817 27.4684V27.3595H0.560567Z" fill="black"/>
<path opacity="0.12" d="M24.8069 15.3848L19.1945 18.4329L19.3067 18.5418L24.8069 15.4937C25.5926 15.0582 25.9294 14.5139 25.9294 13.9696C25.9294 14.5139 25.4804 14.9493 24.8069 15.3848Z" fill="black"/>
<path opacity="0.25" d="M2.91779 0.470713L24.8063 12.5543C25.4798 12.9897 25.9288 13.4251 25.9288 13.9694C25.9288 13.4251 25.5921 12.8808 24.8063 12.4454L2.91779 0.361852C1.34631 -0.509034 0.111572 0.252991 0.111572 1.99476V2.10362C0.111572 0.361852 1.34631 -0.400173 2.91779 0.470713Z" fill="white"/>
<defs>
<linearGradient id="paint0_linear" x1="13.3573" y1="1.67883" x2="-4.90358" y2="20.508" gradientUnits="userSpaceOnUse">
<stop stop-color="#00A0FF"/>
<stop offset="0.00657445" stop-color="#00A1FF"/>
<stop offset="0.2601" stop-color="#00BEFF"/>
<stop offset="0.5122" stop-color="#00D2FF"/>
<stop offset="0.7604" stop-color="#00DFFF"/>
<stop offset="1" stop-color="#00E3FF"/>
</linearGradient>
<linearGradient id="paint1_linear" x1="26.866" y1="13.9711" x2="-0.29472" y2="13.9711" gradientUnits="userSpaceOnUse">
<stop stop-color="#FFE000"/>
<stop offset="0.4087" stop-color="#FFBD00"/>
<stop offset="0.7754" stop-color="#FFA500"/>
<stop offset="1" stop-color="#FF9C00"/>
</linearGradient>
<linearGradient id="paint2_linear" x1="16.7553" y1="16.4692" x2="-8.00792" y2="42.0031" gradientUnits="userSpaceOnUse">
<stop stop-color="#FF3A44"/>
<stop offset="1" stop-color="#C31162"/>
</linearGradient>
<linearGradient id="paint3_linear" x1="-2.92159" y1="-7.61074" x2="8.1363" y2="3.7912" gradientUnits="userSpaceOnUse">
<stop stop-color="#32A071"/>
<stop offset="0.0685" stop-color="#2DA771"/>
<stop offset="0.4762" stop-color="#15CF74"/>
<stop offset="0.8009" stop-color="#06E775"/>
<stop offset="1" stop-color="#00F076"/>
</linearGradient>
</defs>
</svg>
