<svg width="20" height="20" viewBox="0 0 20 20" fill="none" xmlns="http://www.w3.org/2000/svg">
<g clip-path="url(#clip0)">
<path fill-rule="evenodd" clip-rule="evenodd" d="M10.6823 0.485234L12.7038 6.63631L19.2869 6.62392C19.9814 6.62392 20.2597 7.49866 19.706 7.89335L14.375 11.6847L16.4212 17.8288C16.6438 18.5024 15.8243 19.0331 15.2789 18.5832L10.0016 14.8028L4.68294 18.6128C4.12184 19.0142 3.37314 18.4683 3.58369 17.8293L5.62814 11.6847L0.295998 7.89475C-0.288334 7.47865 0.0573313 6.57433 0.768168 6.62392L7.29938 6.63631L9.32088 0.485234C9.53344 -0.166385 10.4718 -0.157088 10.6823 0.485234Z" fill="#FBCAC4"/>
<path fill-rule="evenodd" clip-rule="evenodd" d="M10 3.6953e-07C9.71331 -0.000281169 9.42687 0.160311 9.32088 0.485234L7.29938 6.63631L0.768168 6.62392C0.0573313 6.57433 -0.288334 7.47865 0.295998 7.89475L5.62814 11.6847L3.58369 17.8293C3.37314 18.4683 4.12184 19.0142 4.68294 18.6128L10 14.804V3.6953e-07Z" fill="#FE573F"/>
</g>
<defs>
<clipPath id="clip0">
<rect width="20" height="20" fill="white"/>
</clipPath>
</defs>
</svg>
