<svg width="146" height="23" viewBox="0 0 146 23" fill="none" xmlns="http://www.w3.org/2000/svg">
<path d="M35.103 19.5631V9.44195H35.0357L30.8761 19.4582H29.2884L25.118 9.44195H25.0518V19.5631H23.1006V5.81177H25.5781L30.0437 16.6661H30.1197L34.5766 5.81177H37.0628V19.5631H35.103Z" fill="black"/>
<path d="M38.7111 16.7139C38.7111 14.961 40.0589 13.9024 42.4507 13.7596L45.2049 13.6066V12.8442C45.2049 11.7293 44.4681 11.0999 43.2147 11.0999C42.7504 11.0384 42.2796 11.1478 41.8906 11.4076C41.5016 11.6675 41.2211 12.0598 41.1018 12.5111H39.1701C39.2276 10.6998 40.9206 9.41406 43.2722 9.41406C45.6727 9.41406 47.2603 10.7193 47.2603 12.6918V19.5634H45.2809V17.9143H45.2331C44.9161 18.4734 44.4542 18.9374 43.8956 19.2578C43.337 19.5781 42.7023 19.743 42.0578 19.7353C41.6346 19.7765 41.2074 19.7291 40.8036 19.5961C40.3998 19.4631 40.0284 19.2474 39.7132 18.9629C39.398 18.6784 39.1461 18.3313 38.9735 17.944C38.8009 17.5567 38.7115 17.1377 38.7111 16.7139ZM45.2049 15.8088V15.0367L42.7274 15.1892C41.4935 15.266 40.7957 15.7991 40.7957 16.6566C40.7957 17.5336 41.5228 18.1057 42.6319 18.1057C42.9531 18.1274 43.2754 18.0848 43.5799 17.9804C43.8843 17.876 44.1647 17.712 44.4045 17.4979C44.6443 17.2839 44.8387 17.0241 44.9761 16.734C45.1136 16.4439 45.1914 16.1293 45.2049 15.8088L45.2049 15.8088Z" fill="black"/>
<path d="M55.9325 12.9869C55.8422 12.4385 55.5482 11.944 55.1089 11.6016C54.6696 11.2592 54.1172 11.094 53.5613 11.1388C51.9736 11.1388 50.9221 12.4635 50.9221 14.5511C50.9221 16.6857 51.9834 17.9715 53.5797 17.9715C54.1282 18.0262 54.677 17.8704 55.1142 17.5358C55.5514 17.2013 55.844 16.7131 55.9325 16.1709H57.9216C57.7978 17.2076 57.2729 18.1553 56.4585 18.8121C55.6441 19.4689 54.6046 19.783 53.5613 19.6876C50.6921 19.6876 48.8179 17.7335 48.8179 14.551C48.8179 11.434 50.692 9.41396 53.5418 9.41396C54.5928 9.32515 55.637 9.649 56.4518 10.3165C57.2665 10.9839 57.7874 11.9421 57.9032 12.9868L55.9325 12.9869Z" fill="black"/>
<path d="M71.3412 15.8464H66.0812L64.818 19.5631H62.5901L67.5723 5.81177H69.887L74.8692 19.5631H72.6032L71.3412 15.8464ZM66.626 14.1313H70.7954L68.74 8.09888H68.6825L66.626 14.1313Z" fill="black"/>
<path d="M85.629 14.5508C85.629 17.6663 83.9556 19.6679 81.4303 19.6679C80.7906 19.7013 80.1544 19.5544 79.5946 19.2442C79.0347 18.934 78.5739 18.473 78.2647 17.9139H78.217V22.8796H76.1519V9.53704H78.1508V11.2045H78.1888C78.5121 10.6481 78.9808 10.1895 79.5449 9.87739C80.109 9.56529 80.7474 9.41142 81.3923 9.43215C83.9458 9.43215 85.629 11.4435 85.629 14.5508ZM83.5063 14.5508C83.5063 12.5206 82.4536 11.1861 80.8475 11.1861C79.2696 11.1861 78.2083 12.5487 78.2083 14.5508C78.2083 16.5709 79.2696 17.9237 80.8475 17.9237C82.4536 17.9237 83.5063 16.599 83.5063 14.5508Z" fill="black"/>
<path d="M96.7027 14.5508C96.7027 17.6663 95.0293 19.6679 92.5041 19.6679C91.8644 19.7013 91.2282 19.5544 90.6683 19.2442C90.1085 18.934 89.6476 18.473 89.3385 17.9139H89.2907V22.8796H87.2256V9.53704H89.2245V11.2045H89.2625C89.5858 10.6481 90.0545 10.1895 90.6186 9.87739C91.1827 9.56529 91.8212 9.41142 92.466 9.43215C95.0196 9.43215 96.7027 11.4435 96.7027 14.5508ZM94.5801 14.5508C94.5801 12.5206 93.5274 11.1861 91.9213 11.1861C90.3434 11.1861 89.2821 12.5487 89.2821 14.5508C89.2821 16.5709 90.3434 17.9237 91.9213 17.9237C93.5274 17.9237 94.5801 16.599 94.5801 14.5508H94.5801Z" fill="black"/>
<path d="M104.021 15.7319C104.174 17.0956 105.503 17.9909 107.32 17.9909C109.061 17.9909 110.313 17.0955 110.313 15.866C110.313 14.7987 109.558 14.1596 107.769 13.7216L105.981 13.2918C103.447 12.6819 102.271 11.501 102.271 9.58482C102.271 7.21228 104.345 5.58264 107.292 5.58264C110.208 5.58264 112.207 7.21228 112.274 9.58482H110.189C110.064 8.21255 108.926 7.38422 107.262 7.38422C105.599 7.38422 104.46 8.22229 104.46 9.44208C104.46 10.4142 105.188 10.9863 106.966 11.4242L108.487 11.7962C111.318 12.4634 112.494 13.5967 112.494 15.6086C112.494 18.1812 110.438 19.7924 107.167 19.7924C104.107 19.7924 102.04 18.219 101.907 15.7319L104.021 15.7319Z" fill="black"/>
<path d="M116.951 7.16455V9.53709H118.865V11.1667H116.951V16.6942C116.951 17.5528 117.334 17.9529 118.175 17.9529C118.403 17.949 118.629 17.9331 118.855 17.9053V19.5252C118.477 19.5956 118.092 19.6275 117.708 19.6204C115.671 19.6204 114.876 18.858 114.876 16.9137V11.1667H113.414V9.53705H114.876V7.16455H116.951Z" fill="black"/>
<path d="M119.971 14.5511C119.971 11.3962 121.836 9.41406 124.743 9.41406C127.66 9.41406 129.516 11.3962 129.516 14.5511C129.516 17.7142 127.67 19.6877 124.743 19.6877C121.817 19.6876 119.971 17.7142 119.971 14.5511ZM127.412 14.5511C127.412 12.3868 126.416 11.1097 124.743 11.1097C123.07 11.1097 122.075 12.3965 122.075 14.5511C122.075 16.7236 123.07 17.991 124.743 17.991C126.416 17.991 127.412 16.7236 127.412 14.5511H127.412Z" fill="black"/>
<path d="M131.219 9.53719H133.188V11.2436H133.236C133.369 10.7106 133.683 10.2397 134.123 9.9098C134.564 9.57995 135.105 9.41133 135.656 9.43228C135.894 9.43146 136.131 9.45721 136.363 9.50907V11.4339C136.063 11.3424 135.75 11.3004 135.436 11.3096C135.136 11.2974 134.837 11.3501 134.559 11.4641C134.281 11.578 134.032 11.7504 133.827 11.9696C133.623 12.1887 133.468 12.4493 133.374 12.7335C133.281 13.0178 133.25 13.3189 133.284 13.6161V19.5632H131.219V9.53719Z" fill="black"/>
<path d="M145.885 16.6187C145.607 18.4387 143.829 19.6877 141.553 19.6877C138.626 19.6877 136.81 17.7336 136.81 14.5987C136.81 11.4535 138.636 9.41406 141.466 9.41406C144.25 9.41406 146 11.3194 146 14.3597V15.0648H138.894V15.1891C138.861 15.5581 138.908 15.9298 139.03 16.2795C139.153 16.6293 139.348 16.9491 139.604 17.2176C139.86 17.4862 140.171 17.6975 140.515 17.8373C140.859 17.9772 141.229 18.0425 141.601 18.0288C142.089 18.0744 142.579 17.9618 142.997 17.7077C143.416 17.4536 143.741 17.0717 143.924 16.6187L145.885 16.6187ZM138.904 13.626H143.934C143.952 13.2943 143.902 12.9623 143.786 12.6509C143.669 12.3395 143.49 12.0554 143.258 11.8165C143.026 11.5776 142.747 11.389 142.439 11.2625C142.131 11.136 141.8 11.0744 141.466 11.0815C141.13 11.0795 140.797 11.1439 140.485 11.271C140.174 11.398 139.891 11.5853 139.653 11.8218C139.415 12.0584 139.226 12.3396 139.097 12.6493C138.969 12.9589 138.903 13.2909 138.904 13.626H138.904Z" fill="black"/>
<path d="M13.6865 10.7715C13.6965 10.0039 13.9015 9.25119 14.2826 8.58351C14.6637 7.91582 15.2085 7.35484 15.8662 6.95276C15.4483 6.35939 14.8971 5.87107 14.2563 5.52658C13.6155 5.18209 12.9027 4.99093 12.1746 4.96828C10.6214 4.80616 9.11569 5.89245 8.3242 5.89245C7.51741 5.89245 6.29881 4.98437 4.98658 5.01122C4.13779 5.03849 3.31058 5.28392 2.58555 5.72361C1.86051 6.16329 1.26238 6.78223 0.849428 7.52013C-0.939347 10.5998 0.394921 15.1258 2.10845 17.6152C2.96577 18.8342 3.96772 20.1958 5.27878 20.1475C6.56171 20.0946 7.04087 19.334 8.58947 19.334C10.1237 19.334 10.5733 20.1475 11.9109 20.1168C13.2876 20.0946 14.1549 18.8924 14.9822 17.6619C15.5982 16.7933 16.0722 15.8334 16.3866 14.8176C15.5868 14.4812 14.9043 13.9182 14.4241 13.1987C13.944 12.4792 13.6874 11.6351 13.6865 10.7715Z" fill="black"/>
<path d="M11.1598 3.3308C11.9104 2.43479 12.2802 1.28312 12.1907 0.120361C11.0439 0.240129 9.98464 0.785123 9.22389 1.64676C8.85194 2.06769 8.56706 2.55739 8.38554 3.08786C8.20403 3.61833 8.12944 4.17918 8.16604 4.73834C8.73962 4.74421 9.30707 4.62058 9.82564 4.37678C10.3442 4.13297 10.8004 3.77533 11.1598 3.3308Z" fill="black"/>
</svg>
