<svg width="128" height="34" viewBox="0 0 128 34" fill="none" xmlns="http://www.w3.org/2000/svg">
<path d="M59.1165 11.0874C59.1165 10.6384 59.2747 10.279 59.5913 9.9736C59.9078 9.66827 60.2771 9.52454 60.7168 9.52454C61.174 9.52454 61.5609 9.68624 61.8599 9.99157C62.1588 10.297 62.3171 10.6743 62.3171 11.0874C62.3171 11.5186 62.1588 11.8959 61.8423 12.1833C61.5257 12.4887 61.1564 12.6325 60.6992 12.6325C60.242 12.6325 59.8727 12.4887 59.5561 12.1833C59.2747 11.878 59.1165 11.5186 59.1165 11.0874ZM62.0181 25.7829H59.3978V14.375H62.0181V25.7829Z" fill="#737373"/>
<path d="M70.002 23.8244C70.389 23.8244 70.828 23.7346 71.303 23.5549C71.778 23.3753 72.2 23.1237 72.604 22.8184V25.3155C72.182 25.567 71.708 25.7467 71.18 25.8724C70.652 25.9982 70.055 26.0701 69.421 26.0701C67.7859 26.0701 66.4494 25.5311 65.4118 24.4711C64.3743 23.4112 63.8643 22.0458 63.8643 20.411C63.8643 18.5786 64.3918 17.0695 65.447 15.8838C66.5022 14.6981 67.9794 14.1053 69.914 14.1053C70.406 14.1053 70.899 14.1772 71.409 14.303C71.919 14.4287 72.306 14.5903 72.604 14.752V17.3211C72.2 17.0156 71.778 16.7821 71.356 16.6205C70.934 16.4588 70.494 16.3689 70.055 16.3689C69.017 16.3689 68.19 16.7103 67.5397 17.3929C66.9066 18.0756 66.5901 19.0097 66.5901 20.1775C66.5901 21.3273 66.889 22.2255 67.5046 22.8723C68.12 23.519 68.947 23.8244 70.002 23.8244Z" fill="#737373"/>
<path d="M80.079 14.1956C80.29 14.1956 80.483 14.2135 80.641 14.2315C80.8 14.2674 80.958 14.3034 81.063 14.3393V17.052C80.923 16.9442 80.729 16.8543 80.466 16.7645C80.202 16.6747 79.885 16.6208 79.498 16.6208C78.848 16.6208 78.302 16.8903 77.863 17.4472C77.423 18.0041 77.195 18.8484 77.195 20.0162V25.783H74.574V14.3752H77.195V16.1717H77.23C77.476 15.5429 77.828 15.0579 78.32 14.7165C78.812 14.3752 79.393 14.1956 80.079 14.1956Z" fill="#737373"/>
<path d="M81.2041 20.2493C81.2041 18.363 81.7321 16.8719 82.7691 15.7581C83.8071 14.6622 85.2671 14.1053 87.1131 14.1053C88.8541 14.1053 90.2261 14.6442 91.2111 15.7042C92.1961 16.7641 92.6881 18.2013 92.6881 19.9978C92.6881 21.8483 92.1601 23.3213 91.1231 24.4172C90.0851 25.5131 88.6611 26.0521 86.8671 26.0521C85.1441 26.0521 83.7541 25.531 82.7521 24.4891C81.7141 23.4651 81.2041 22.0458 81.2041 20.2493ZM83.9481 20.1595C83.9481 21.3452 84.2121 22.2614 84.7391 22.8902C85.2671 23.519 86.0231 23.8244 87.0081 23.8244C87.9571 23.8244 88.6961 23.519 89.1881 22.8902C89.6811 22.2614 89.9451 21.3272 89.9451 20.0876C89.9451 18.866 89.6811 17.9318 89.1711 17.3031C88.6611 16.6744 87.9221 16.3689 86.9901 16.3689C86.0231 16.3689 85.2841 16.6923 84.7391 17.357C84.2121 18.0217 83.9481 18.9379 83.9481 20.1595Z" fill="#737373"/>
<path d="M96.592 17.375C96.592 17.7523 96.715 18.0576 96.943 18.2732C97.19 18.4888 97.717 18.7583 98.526 19.0996C99.581 19.5308 100.32 20.0159 100.742 20.5548C101.164 21.0938 101.375 21.7405 101.375 22.495C101.375 23.5729 100.971 24.4352 100.162 25.082C99.353 25.7287 98.262 26.0521 96.891 26.0521C96.433 26.0521 95.924 25.9982 95.361 25.8724C94.798 25.7646 94.323 25.6029 93.936 25.4413V22.8004C94.411 23.1418 94.921 23.4112 95.484 23.6088C96.029 23.8065 96.539 23.9143 96.979 23.9143C97.577 23.9143 98.016 23.8244 98.298 23.6627C98.579 23.501 98.72 23.2137 98.72 22.8004C98.72 22.4231 98.579 22.1178 98.28 21.8663C97.981 21.6147 97.436 21.3093 96.609 20.986C95.642 20.5728 94.956 20.1057 94.552 19.5847C94.147 19.0638 93.936 18.399 93.936 17.6086C93.936 16.5846 94.341 15.7402 95.132 15.0755C95.923 14.4108 96.961 14.0874 98.245 14.0874C98.632 14.0874 99.071 14.1233 99.564 14.2132C100.056 14.303 100.461 14.4108 100.777 14.5545V17.1055C100.426 16.872 100.021 16.6744 99.564 16.4947C99.107 16.333 98.632 16.2432 98.192 16.2432C97.7 16.2432 97.295 16.351 97.031 16.5486C96.732 16.7463 96.592 17.0336 96.592 17.375Z" fill="#737373"/>
<path d="M102.536 20.2493C102.536 18.363 103.063 16.8719 104.101 15.7581C105.138 14.6622 106.598 14.1053 108.445 14.1053C110.186 14.1053 111.557 14.6442 112.542 15.7042C113.527 16.7641 114.019 18.2013 114.019 19.9978C114.019 21.8483 113.492 23.3213 112.454 24.4172C111.417 25.5131 109.992 26.0521 108.198 26.0521C106.475 26.0521 105.086 25.531 104.083 24.4891C103.046 23.4651 102.536 22.0458 102.536 20.2493ZM105.261 20.1595C105.261 21.3452 105.525 22.2614 106.053 22.8902C106.58 23.519 107.337 23.8244 108.321 23.8244C109.271 23.8244 110.01 23.519 110.502 22.8902C110.994 22.2614 111.258 21.3272 111.258 20.0876C111.258 18.866 110.995 17.9318 110.485 17.3031C109.975 16.6744 109.236 16.3689 108.304 16.3689C107.337 16.3689 106.598 16.6923 106.053 17.357C105.525 18.0217 105.261 18.9379 105.261 20.1595Z" fill="#737373"/>
<path d="M122.689 16.5848V22.4413C122.689 23.6629 122.97 24.5612 123.516 25.1719C124.061 25.7828 124.905 26.0703 126.013 26.0703C126.382 26.0703 126.769 26.0343 127.156 25.9445C127.543 25.8547 127.824 25.7828 127.982 25.675V23.4473C127.824 23.5551 127.631 23.645 127.42 23.7168C127.209 23.7887 127.015 23.8246 126.875 23.8246C126.347 23.8246 125.942 23.6809 125.696 23.3934C125.45 23.106 125.327 22.603 125.327 21.9024V16.5668H128V14.3751H125.345V10.9976L122.707 11.824V14.393H118.785V13.0097C118.785 12.3271 118.926 11.806 119.225 11.4467C119.524 11.0875 119.946 10.9258 120.491 10.9258C120.772 10.9258 121.018 10.9617 121.247 11.0336C121.458 11.1054 121.616 11.1773 121.704 11.2312V8.9137C121.511 8.84183 121.3 8.8059 121.054 8.76996C120.807 8.73403 120.526 8.71606 120.209 8.71606C119.014 8.71606 118.029 9.09337 117.273 9.86583C116.516 10.6383 116.129 11.6084 116.129 12.8121V14.393H114.265V16.5848H116.129V25.8008H118.785V16.5848H122.689Z" fill="#737373"/>
<path d="M56.865 9.86597V25.7829H54.1567V13.3152H54.1215L49.2854 25.7829H47.4916L42.5324 13.3152H42.4972V25.7829H40V9.86597H43.8689L48.3533 21.669H48.4237L53.1543 9.86597H56.865Z" fill="#737373"/>
<path d="M24.6176 8.82462V8.09146C24.6176 6.10103 23.6954 4.23147 22.1348 3.05302C22.9285 4.13439 23.3566 5.45219 23.3548 6.80663V8.82462H22.0884V6.80663C22.0902 3.35172 19.363 0.549316 16.0009 0.549316C12.6388 0.549316 9.9098 3.35172 9.9098 6.80663V8.82462H0L0 30.8315C0 32.1476 1.0381 33.2161 2.3205 33.2161H29.6813C30.9619 33.2161 32.0018 32.1494 32.0018 30.8315V8.82462H24.6176ZM11.1726 6.80663C11.1708 4.06834 13.3308 1.847 15.9973 1.847C15.9991 1.847 15.9991 1.847 16.0009 1.847C18.6424 1.9056 20.7703 4.09223 20.8292 6.80847V8.82646H13.7V8.09329C13.6982 5.355 15.8582 3.13366 18.5247 3.13183C18.5265 3.13183 18.5265 3.13183 18.5283 3.13183C18.7512 3.13183 18.9724 3.14826 19.1918 3.18307C18.5871 2.89714 17.9308 2.74871 17.2655 2.74687C15.7048 2.74503 14.2387 3.5222 13.3344 4.82897C12.7476 5.81142 12.4372 6.94046 12.439 8.09146V8.82462H11.1726V6.80663Z" fill="#E8E8E8"/>
<path d="M15.4835 14.1217H9.29077V20.4872H15.4835V14.1217Z" fill="#F25022"/>
<path d="M22.7089 14.1217H16.5161V20.4872H22.7089V14.1217Z" fill="#7FBA00"/>
<path d="M15.4835 21.5468H9.29077V27.9104H15.4835V21.5468Z" fill="#00A4EF"/>
<path d="M22.7089 21.5468H16.5161V27.9104H22.7089V21.5468Z" fill="#FFB900"/>
</svg>
