<svg width="28" height="28" viewBox="0 0 28 28" fill="none" xmlns="http://www.w3.org/2000/svg">
<g clip-path="url(#clip0)">
<path d="M25.2268 5.47993C24.1456 4.05873 22.8196 2.88913 21.3304 1.99833C21.2624 1.95753 21.174 1.97113 21.1128 2.02553C21.0312 2.10713 21.0516 2.23633 21.14 2.29753C23.9008 4.08593 26.0292 6.96913 26.5256 10.8179C27.5456 18.6379 22.0852 25.1659 14.4012 25.1863C5.95563 25.2135 0.814835 17.7471 2.16124 11.0423C2.22924 10.7091 2.19524 10.3827 2.30403 10.0631C2.36524 8.88673 2.81403 7.03713 3.77963 5.14673C2.80723 5.64993 1.56963 7.24113 0.957635 8.70993C0.0736349 10.8315 -0.232365 13.3679 0.0464348 15.7819C0.0668348 15.9655 0.0872349 16.1423 0.107635 16.3259C1.24323 22.9763 7.03684 28.0355 14.0068 28.0219C21.7724 28.0083 28.0964 21.6367 28.0556 13.8643C28.042 10.7227 26.988 7.81913 25.2268 5.47993Z" fill="url(#paint0_radial)"/>
<path opacity="0.67" d="M25.2268 5.47993C24.1456 4.05873 22.8196 2.88913 21.3304 1.99833C21.2624 1.95753 21.174 1.97113 21.1128 2.02553C21.0312 2.10713 21.0516 2.23633 21.14 2.29753C23.9008 4.08593 26.0292 6.96913 26.5256 10.8179C27.5456 18.6379 22.0852 25.1659 14.4012 25.1863C5.95563 25.2135 0.814835 17.7471 2.16124 11.0423C2.22924 10.7091 2.19524 10.3827 2.30403 10.0631C2.36524 8.88673 2.81403 7.03713 3.77963 5.14673C2.80723 5.64993 1.56963 7.24113 0.957635 8.70993C0.0736349 10.8315 -0.232365 13.3679 0.0464348 15.7819C0.0668348 15.9655 0.0872349 16.1423 0.107635 16.3259C1.24323 22.9763 7.03684 28.0355 14.0068 28.0219C21.7724 28.0083 28.0964 21.6367 28.0556 13.8643C28.042 10.7227 26.988 7.81913 25.2268 5.47993Z" fill="url(#paint1_radial)"/>
<path d="M25.2268 5.47993C24.1456 4.05873 22.8196 2.88913 21.3304 1.99833C21.2624 1.95753 21.174 1.97113 21.1128 2.02553C21.0312 2.10713 21.0516 2.23633 21.14 2.29753C23.9008 4.08593 26.0292 6.96913 26.5256 10.8179C27.5456 18.6379 22.0852 25.1659 14.4012 25.1863C5.95563 25.2135 0.814835 17.7471 2.16124 11.0423C2.22924 10.7091 2.19524 10.3827 2.30403 10.0631C2.36524 8.88673 2.81403 7.03713 3.77963 5.14673C2.80723 5.64993 1.56963 7.24113 0.957635 8.70993C0.0736349 10.8315 -0.232365 13.3679 0.0464348 15.7819C0.0668348 15.9655 0.0872349 16.1423 0.107635 16.3259C1.24323 22.9763 7.03684 28.0355 14.0068 28.0219C21.7724 28.0083 28.0964 21.6367 28.0556 13.8643C28.042 10.7227 26.988 7.81913 25.2268 5.47993Z" fill="url(#paint2_radial)"/>
<path d="M25.2268 5.47993C24.1456 4.05873 22.8196 2.88913 21.3304 1.99833C21.2624 1.95753 21.174 1.97113 21.1128 2.02553C21.0312 2.10713 21.0516 2.23633 21.14 2.29753C23.9008 4.08593 26.0292 6.96913 26.5256 10.8179C27.5456 18.6379 22.0852 25.1659 14.4012 25.1863C5.95563 25.2135 0.814835 17.7471 2.16124 11.0423C2.22924 10.7091 2.19524 10.3827 2.30403 10.0631C2.36524 8.88673 2.81403 7.03713 3.77963 5.14673C2.80723 5.64993 1.56963 7.24113 0.957635 8.70993C0.0736349 10.8315 -0.232365 13.3679 0.0464348 15.7819C0.0668348 15.9655 0.0872349 16.1423 0.107635 16.3259C1.24323 22.9763 7.03684 28.0355 14.0068 28.0219C21.7724 28.0083 28.0964 21.6367 28.0556 13.8643C28.042 10.7227 26.988 7.81913 25.2268 5.47993Z" fill="url(#paint3_radial)"/>
<path d="M25.2268 5.47993C24.1456 4.05873 22.8196 2.88913 21.3304 1.99833C21.2624 1.95753 21.174 1.97113 21.1128 2.02553C21.0312 2.10713 21.0516 2.23633 21.14 2.29753C23.9008 4.08593 26.0292 6.96913 26.5256 10.8179C27.5456 18.6379 22.0852 25.1659 14.4012 25.1863C5.95563 25.2135 0.814835 17.7471 2.16124 11.0423C2.22924 10.7091 2.19524 10.3827 2.30403 10.0631C2.36524 8.88673 2.81403 7.03713 3.77963 5.14673C2.80723 5.64993 1.56963 7.24113 0.957635 8.70993C0.0736349 10.8315 -0.232365 13.3679 0.0464348 15.7819C0.0668348 15.9655 0.0872349 16.1423 0.107635 16.3259C1.24323 22.9763 7.03684 28.0355 14.0068 28.0219C21.7724 28.0083 28.0964 21.6367 28.0556 13.8643C28.042 10.7227 26.988 7.81913 25.2268 5.47993Z" fill="url(#paint4_radial)"/>
<path d="M26.8724 10.4298C26.4168 6.33622 24.1184 3.54142 21.1808 1.90942C20.6912 1.63742 20.0724 1.75302 19.7188 2.18822L19.712 2.19502C23.0576 4.25542 25.1656 7.90702 25.2744 11.715C25.4036 16.3458 21.6024 20.0382 17.2232 20.249C14.0408 20.4054 11.042 18.8686 9.57323 15.7882C9.24683 15.1014 9.00883 14.4078 8.88643 13.5646C8.19283 8.88622 11.3412 4.89462 14.2312 3.90182C12.674 2.54182 8.76403 2.63702 5.86043 4.77222C3.76603 6.30902 2.40603 8.64822 1.95723 11.4362C1.61723 13.5646 1.93683 15.7746 2.78003 17.7466C3.63683 19.7594 5.03083 21.5342 6.79203 22.8398C8.69603 24.261 10.9944 25.0838 13.3608 25.2606C13.7076 25.2878 14.0612 25.3014 14.408 25.3014C23.7036 25.315 27.7428 18.2702 26.8724 10.4298Z" fill="url(#paint5_radial)"/>
<path d="M26.8724 10.4298C26.4168 6.33622 24.1184 3.54142 21.1808 1.90942C20.6912 1.63742 20.0724 1.75302 19.7188 2.18822L19.712 2.19502C23.0576 4.25542 25.1656 7.90702 25.2744 11.715C25.4036 16.3458 21.6024 20.0382 17.2232 20.249C14.0408 20.4054 11.042 18.8686 9.57323 15.7882C9.24683 15.1014 9.00883 14.4078 8.88643 13.5646C8.19283 8.88622 11.3412 4.89462 14.2312 3.90182C12.674 2.54182 8.76403 2.63702 5.86043 4.77222C3.76603 6.30902 2.40603 8.64822 1.95723 11.4362C1.61723 13.5646 1.93683 15.7746 2.78003 17.7466C3.63683 19.7594 5.03083 21.5342 6.79203 22.8398C8.69603 24.261 10.9944 25.0838 13.3608 25.2606C13.7076 25.2878 14.0612 25.3014 14.408 25.3014C23.7036 25.315 27.7428 18.2702 26.8724 10.4298Z" fill="url(#paint6_radial)"/>
<path opacity="0.53" d="M26.8724 10.4298C26.4168 6.33622 24.1184 3.54142 21.1808 1.90942C20.6912 1.63742 20.0724 1.75302 19.7188 2.18822L19.712 2.19502C23.0576 4.25542 25.1656 7.90702 25.2744 11.715C25.4036 16.3458 21.6024 20.0382 17.2232 20.249C14.0408 20.4054 11.042 18.8686 9.57323 15.7882C9.24683 15.1014 9.00883 14.4078 8.88643 13.5646C8.19283 8.88622 11.3412 4.89462 14.2312 3.90182C12.674 2.54182 8.76403 2.63702 5.86043 4.77222C3.76603 6.30902 2.40603 8.64822 1.95723 11.4362C1.61723 13.5646 1.93683 15.7746 2.78003 17.7466C3.63683 19.7594 5.03083 21.5342 6.79203 22.8398C8.69603 24.261 10.9944 25.0838 13.3608 25.2606C13.7076 25.2878 14.0612 25.3014 14.408 25.3014C23.7036 25.315 27.7428 18.2702 26.8724 10.4298Z" fill="url(#paint7_radial)"/>
<path opacity="0.53" d="M26.8724 10.4298C26.4168 6.33622 24.1184 3.54142 21.1808 1.90942C20.6912 1.63742 20.0724 1.75302 19.7188 2.18822L19.712 2.19502C23.0576 4.25542 25.1656 7.90702 25.2744 11.715C25.4036 16.3458 21.6024 20.0382 17.2232 20.249C14.0408 20.4054 11.042 18.8686 9.57323 15.7882C9.24683 15.1014 9.00883 14.4078 8.88643 13.5646C8.19283 8.88622 11.3412 4.89462 14.2312 3.90182C12.674 2.54182 8.76403 2.63702 5.86043 4.77222C3.76603 6.30902 2.40603 8.64822 1.95723 11.4362C1.61723 13.5646 1.93683 15.7746 2.78003 17.7466C3.63683 19.7594 5.03083 21.5342 6.79203 22.8398C8.69603 24.261 10.9944 25.0838 13.3608 25.2606C13.7076 25.2878 14.0612 25.3014 14.408 25.3014C23.7036 25.315 27.7428 18.2702 26.8724 10.4298Z" fill="url(#paint8_radial)"/>
<path d="M19.7324 2.17476C19.7256 2.18156 19.7256 2.18836 19.7188 2.19516C19.3176 2.69156 19.3992 3.41236 19.8888 3.82036C21.9968 5.54756 23.4112 8.00236 23.4112 10.838C23.4112 14.7548 20.3784 17.74 16.8288 17.5292C11.552 17.2096 10.226 11.8172 12.9664 9.48476C12.2252 9.32836 10.838 9.63436 9.86562 11.0828C8.99522 12.3816 9.04282 14.3808 9.58002 15.802C11.0488 18.8756 14.0476 20.4532 17.23 20.2628C23.2412 19.8956 25.8116 14.9384 25.9748 11.4092C26.1516 7.58076 25.288 4.18756 21.1944 1.90276C20.698 1.62396 20.086 1.73956 19.7324 2.17476Z" fill="url(#paint9_radial)"/>
<path d="M25.2269 5.47984C24.8529 4.98344 24.4381 4.52104 24.0029 4.08584C23.6561 3.71864 23.2821 3.37864 22.8877 3.05904C23.1121 3.25624 23.3297 3.46704 23.5405 3.68464C24.3021 4.50744 24.9073 5.47984 25.2541 6.54064C25.9885 8.75744 25.9409 11.5386 24.5401 13.7146C22.8673 16.3122 20.1473 17.5974 17.2097 17.5362C17.0805 17.5362 16.9581 17.5362 16.8289 17.5294C11.5521 17.2098 10.2261 11.8174 12.9665 9.48504C12.2253 9.32864 10.8381 9.63464 9.86567 11.083C8.99527 12.3818 9.04287 14.381 9.58007 15.8022C9.25367 15.1154 9.01567 14.4218 8.89327 13.5786C8.19967 8.90024 11.3481 4.90864 14.2381 3.91584C12.6809 2.55584 8.77087 2.65104 5.86727 4.78624C4.17407 6.03064 2.96367 7.79864 2.32447 9.90664C2.41967 8.72344 2.86847 6.96224 3.78647 5.15344C2.81407 5.65664 1.57647 7.24784 0.964471 8.71664C0.0804706 10.8382 -0.225529 13.3746 0.0532707 15.7886C0.0736707 15.9722 0.0940706 16.149 0.114471 16.3326C1.24327 22.9694 7.03007 28.0286 13.9865 28.0286C21.7589 28.0286 28.0625 21.725 28.0625 13.9526C28.0557 10.7702 27.0017 7.83944 25.2269 5.47984Z" fill="url(#paint10_linear)"/>
<path d="M25.254 6.54058C24.9004 5.47978 24.302 4.50738 23.5404 3.68458C21.9084 1.93018 19.508 0.808183 17.196 0.298183C15.2512 -0.130217 13.2112 -0.123417 11.3752 0.264183C9.37604 0.685783 7.62164 1.54938 6.51324 2.62378C10.3484 0.379783 15.5164 0.794583 19.0524 3.31058C19.644 3.73218 20.1948 4.21498 20.6912 4.74538C23.044 7.28178 24.0028 11.5182 22.024 14.5646C21.0312 16.1082 18.896 17.5498 16.9036 17.5362C19.9568 17.6994 22.806 16.4074 24.5332 13.7214C25.9408 11.5386 25.9884 8.75738 25.254 6.54058Z" fill="url(#paint11_linear)"/>
<path d="M25.254 6.54058C24.9004 5.47978 24.302 4.50738 23.5404 3.68458C21.9084 1.93018 19.508 0.808183 17.196 0.298183C15.2512 -0.130217 13.2112 -0.123417 11.3752 0.264183C9.37604 0.685783 7.62164 1.54938 6.51324 2.62378C10.3484 0.379783 15.5164 0.794583 19.0524 3.31058C19.644 3.73218 20.1948 4.21498 20.6912 4.74538C23.044 7.28178 24.0028 11.5182 22.024 14.5646C21.0312 16.1082 18.896 17.5498 16.9036 17.5362C19.9568 17.6994 22.806 16.4074 24.5332 13.7214C25.9408 11.5386 25.9884 8.75738 25.254 6.54058Z" fill="url(#paint12_linear)"/>
</g>
<defs>
<radialGradient id="paint0_radial" cx="0" cy="0" r="1" gradientUnits="userSpaceOnUse" gradientTransform="translate(25.0812 5.39207) scale(31.7616)">
<stop stop-color="#FFF44F"/>
<stop offset="0.2949" stop-color="#FF980E"/>
<stop offset="0.4315" stop-color="#FF5D36"/>
<stop offset="0.5302" stop-color="#FF3750"/>
<stop offset="0.7493" stop-color="#F5156C"/>
<stop offset="0.7648" stop-color="#F1136E"/>
<stop offset="0.8801" stop-color="#DA057A"/>
<stop offset="0.9528" stop-color="#D2007F"/>
</radialGradient>
<radialGradient id="paint1_radial" cx="0" cy="0" r="1" gradientUnits="userSpaceOnUse" gradientTransform="translate(2.27243 8.13401) scale(18.3443)">
<stop stop-color="#B5007F"/>
<stop offset="1" stop-color="#F5156C" stop-opacity="0"/>
</radialGradient>
<radialGradient id="paint2_radial" cx="0" cy="0" r="1" gradientUnits="userSpaceOnUse" gradientTransform="translate(27.8084 5.22215) scale(34.7955)">
<stop stop-color="#FFDD00" stop-opacity="0.6"/>
<stop offset="0.0836672" stop-color="#FFD801" stop-opacity="0.5244"/>
<stop offset="0.1822" stop-color="#FECA05" stop-opacity="0.4353"/>
<stop offset="0.2884" stop-color="#FEB20C" stop-opacity="0.3394"/>
<stop offset="0.3998" stop-color="#FD9115" stop-opacity="0.2388"/>
<stop offset="0.5154" stop-color="#FB6621" stop-opacity="0.1343"/>
<stop offset="0.6329" stop-color="#F9332F" stop-opacity="0.028164"/>
<stop offset="0.664" stop-color="#F92433" stop-opacity="0"/>
</radialGradient>
<radialGradient id="paint3_radial" cx="0" cy="0" r="1" gradientUnits="userSpaceOnUse" gradientTransform="translate(14.803 16.4675) scale(46.7494)">
<stop offset="0.1528" stop-color="#960E18"/>
<stop offset="0.2061" stop-color="#CC2335" stop-opacity="0.5541"/>
<stop offset="0.2495" stop-color="#F13148" stop-opacity="0.1914"/>
<stop offset="0.2724" stop-color="#FF3750" stop-opacity="0"/>
</radialGradient>
<radialGradient id="paint4_radial" cx="0" cy="0" r="1" gradientUnits="userSpaceOnUse" gradientTransform="translate(11.1457 15.903) scale(47.0749)">
<stop offset="0.1129" stop-color="#960E18"/>
<stop offset="0.1893" stop-color="#CC2335" stop-opacity="0.5541"/>
<stop offset="0.2515" stop-color="#F13148" stop-opacity="0.1914"/>
<stop offset="0.2843" stop-color="#FF3750" stop-opacity="0"/>
</radialGradient>
<radialGradient id="paint5_radial" cx="0" cy="0" r="1" gradientUnits="userSpaceOnUse" gradientTransform="translate(24.4095 4.47163) scale(29.5817)">
<stop stop-color="#FF980E"/>
<stop offset="0.295" stop-color="#FF7139"/>
<stop offset="0.4846" stop-color="#FF5B51"/>
<stop offset="0.626" stop-color="#FF4F5E"/>
<stop offset="0.7365" stop-color="#FF4055"/>
<stop offset="0.8428" stop-color="#FF3750"/>
</radialGradient>
<radialGradient id="paint6_radial" cx="0" cy="0" r="1" gradientUnits="userSpaceOnUse" gradientTransform="translate(24.4095 5.55893) scale(28.0624)">
<stop offset="0.0840745" stop-color="#FFDE08"/>
<stop offset="0.2081" stop-color="#FFD609" stop-opacity="0.832"/>
<stop offset="0.4033" stop-color="#FFBF0B" stop-opacity="0.5677"/>
<stop offset="0.6437" stop-color="#FF9B0F" stop-opacity="0.242"/>
<stop offset="0.8224" stop-color="#FF7B12" stop-opacity="0"/>
</radialGradient>
<radialGradient id="paint7_radial" cx="0" cy="0" r="1" gradientUnits="userSpaceOnUse" gradientTransform="translate(17.4906 14.2795) rotate(75.6841) scale(14.125 14.7406)">
<stop offset="0.3634" stop-color="#FF3750"/>
<stop offset="0.4111" stop-color="#FF444B" stop-opacity="0.7895"/>
<stop offset="0.5902" stop-color="#FF7139" stop-opacity="0"/>
</radialGradient>
<radialGradient id="paint8_radial" cx="0" cy="0" r="1" gradientUnits="userSpaceOnUse" gradientTransform="translate(14.9591 15.4442) rotate(75.6841) scale(14.2864 14.2987)">
<stop offset="0.2159" stop-color="#FF3750" stop-opacity="0.8"/>
<stop offset="0.2702" stop-color="#FF444B" stop-opacity="0.6316"/>
<stop offset="0.4739" stop-color="#FF7139" stop-opacity="0"/>
</radialGradient>
<radialGradient id="paint9_radial" cx="0" cy="0" r="1" gradientUnits="userSpaceOnUse" gradientTransform="translate(30.3954 1.05784) scale(50.0475)">
<stop offset="0.0535657" stop-color="#FFF44F"/>
<stop offset="0.4573" stop-color="#FF980E"/>
<stop offset="0.5211" stop-color="#FF8424"/>
<stop offset="0.5871" stop-color="#FF7634"/>
<stop offset="0.6393" stop-color="#FF7139"/>
</radialGradient>
<linearGradient id="paint10_linear" x1="20.6846" y1="2.45043" x2="6.33614" y2="27.3028" gradientUnits="userSpaceOnUse">
<stop stop-color="#FFF44F" stop-opacity="0.8"/>
<stop offset="0.75" stop-color="#FFF44F" stop-opacity="0"/>
</linearGradient>
<linearGradient id="paint11_linear" x1="16.1165" y1="17.6185" x2="16.1165" y2="0.153981" gradientUnits="userSpaceOnUse">
<stop stop-color="#3A8EE6"/>
<stop offset="0.1016" stop-color="#4D82EB"/>
<stop offset="0.3885" stop-color="#7D65FA"/>
<stop offset="0.5309" stop-color="#9059FF"/>
<stop offset="0.6915" stop-color="#9D50F8"/>
<stop offset="0.9888" stop-color="#C03AE7"/>
<stop offset="1" stop-color="#C139E6"/>
</linearGradient>
<linearGradient id="paint12_linear" x1="13.0451" y1="-0.480995" x2="22.5731" y2="16.0219" gradientUnits="userSpaceOnUse">
<stop offset="0.8054" stop-color="#9059FF" stop-opacity="0"/>
<stop offset="1" stop-color="#6E008B" stop-opacity="0.5"/>
</linearGradient>
<clipPath id="clip0">
<rect width="28" height="28" fill="white"/>
</clipPath>
</defs>
</svg>
