<svg width="28" height="28" viewBox="0 0 28 28" fill="none" xmlns="http://www.w3.org/2000/svg">
<g clip-path="url(#clip0)">
<path d="M21.5404 7.09308V6.46468C21.5404 4.75857 20.7335 3.15615 19.3679 2.14599C20.0624 3.07288 20.437 4.20244 20.4354 5.36341V7.09308H19.3274V5.36341C19.3289 2.40206 16.9426 0 14.0008 0C11.0589 0 8.67109 2.40206 8.67109 5.36341V7.09308H0V25.9561C0 27.0841 0.908311 28 2.03043 28H25.9711C27.0917 28 28.0016 27.0857 28.0016 25.9561V7.09308H21.5404ZM9.77604 5.36341C9.77448 3.01633 11.6645 1.11227 13.9977 1.11227C13.9992 1.11227 13.9992 1.11227 14.0008 1.11227C16.3121 1.16254 18.174 3.03675 18.2255 5.36498V7.09465H11.9875V6.46625C11.986 4.11917 13.8759 2.21512 16.2091 2.21354C16.2107 2.21354 16.2107 2.21354 16.2123 2.21354C16.4073 2.21354 16.6009 2.22768 16.7928 2.25753C16.2638 2.01246 15.6894 1.8852 15.1073 1.88363C13.7417 1.88206 12.4588 2.54817 11.6676 3.66829C11.1541 4.51035 10.8826 5.47809 10.8841 6.46468V7.09308H9.77604V5.36341Z" fill="#E8E8E8"/>
<path d="M13.5482 11.6333H8.12952V17.0894H13.5482V11.6333Z" fill="#F25022"/>
<path d="M19.8704 11.6333H14.4518V17.0894H19.8704V11.6333Z" fill="#7FBA00"/>
<path d="M13.5482 17.9976H8.12952V23.4521H13.5482V17.9976Z" fill="#00A4EF"/>
<path d="M19.8704 17.9976H14.4518V23.4521H19.8704V17.9976Z" fill="#FFB900"/>
</g>
<defs>
<clipPath id="clip0">
<rect width="28" height="28" fill="white"/>
</clipPath>
</defs>
</svg>
