<svg width="28" height="32" viewBox="0 0 28 32" fill="none" xmlns="http://www.w3.org/2000/svg">
<path d="M26.75 22.625C27.4404 22.625 28 22.0654 28 21.375V16.75C28 13.993 25.757 11.75 23 11.75H21.4977V7.34163C21.4977 3.29344 18.1332 0 13.9977 0C9.86219 0 6.49769 3.29344 6.49769 7.34163V11.75H5C2.243 11.75 0 13.993 0 16.75V27C0 29.757 2.243 32 5 32H23C25.757 32 28 29.757 28 27C28 26.3096 27.4404 25.75 26.75 25.75C26.0596 25.75 25.5 26.3096 25.5 27C25.5 28.3785 24.3785 29.5 23 29.5H5C3.6215 29.5 2.5 28.3785 2.5 27V16.75C2.5 15.3715 3.6215 14.25 5 14.25H23C24.3785 14.25 25.5 15.3715 25.5 16.75V21.375C25.5 22.0654 26.0596 22.625 26.75 22.625ZM18.9977 11.75H8.99769V7.34163C8.99769 4.67194 11.2407 2.5 13.9977 2.5C16.7547 2.5 18.9977 4.67194 18.9977 7.34163V11.75Z" fill="#FE573F"/>
<path d="M14.0001 22.9375C14.6905 22.9375 15.2501 22.3779 15.2501 21.6875C15.2501 20.9971 14.6905 20.4375 14.0001 20.4375C13.3098 20.4375 12.7501 20.9971 12.7501 21.6875C12.7501 22.3779 13.3098 22.9375 14.0001 22.9375Z" fill="#FE573F"/>
</svg>
