<svg width="839" height="545" viewBox="0 0 839 545" fill="none" xmlns="http://www.w3.org/2000/svg">
<path d="M234.92 537.454L234.081 534.1L233.242 532.423H231.564L229.047 534.1L228.208 536.615L227.369 538.292L224.013 536.615L220.657 534.1L218.979 533.261L222.335 537.454L224.852 539.969L228.208 542.485L230.725 543.323L232.403 544.161L234.92 545L236.598 543.323L237.437 541.646L238.276 543.323H240.793L241.632 541.646L238.276 540.808L234.92 537.454ZM739.998 492.177C739.159 492.177 738.32 493.015 736.642 493.015L734.125 492.177H732.447V493.854L734.125 496.369V498.046L735.803 500.561H737.481H738.32L739.998 498.046L740.837 498.885V496.369L741.676 495.531V492.177H739.998ZM801.245 493.015L799.567 494.692C799.567 493.854 798.728 493.015 798.728 492.177L797.05 493.015V494.692L796.211 495.531L795.372 498.046L793.694 499.723C792.855 500.562 791.177 501.4 790.338 502.238L788.66 503.077L785.304 506.431L784.465 508.946V509.785H786.982L788.66 510.623H791.177C792.016 509.785 792.855 508.946 794.533 508.108L796.211 504.754L797.05 502.238L798.728 501.4H800.406L799.567 499.723L800.406 498.046C801.245 497.208 802.084 495.531 802.923 493.854V492.177L801.245 493.015ZM809.635 483.792H807.957L805.44 482.954V480.438L804.601 479.6V481.277L802.923 477.923L802.084 475.408L800.406 474.569L798.728 473.731H797.889L798.728 475.408L800.406 477.923L801.245 478.762V479.6L802.084 481.277V482.954V485.469L800.406 486.308V487.146L802.923 487.985L803.762 489.662L802.084 492.177L802.923 493.015V493.854L804.601 493.015C805.44 491.338 806.279 489.662 807.118 488.823V487.146L807.957 486.308H809.635L810.474 484.631L811.313 482.115H810.474L809.635 483.792ZM510.951 420.069L510.112 418.392L509.273 417.554L508.434 416.715L507.595 417.554V419.231L505.917 420.908H505.078V421.746L504.239 422.585L503.4 423.423L501.722 425.1H500.883L500.044 425.938L498.366 426.777H497.527V428.454L496.688 430.131V432.646L497.527 434.323L498.366 435.162V436.838L497.527 438.515V439.354L496.688 440.192V441.869V443.546L497.527 445.223V447.738L498.366 449.415C499.205 450.254 500.883 450.254 501.722 451.092L503.4 450.254L505.078 449.415L505.917 446.061C506.756 441.031 508.434 436 510.112 431.808V430.131L510.951 429.292V428.454L510.112 426.777L510.951 425.938L511.79 427.615V426.777V425.938L510.951 425.1V420.069ZM752.583 452.769V451.092L751.744 448.577L750.066 446.9C749.227 446.062 748.388 445.223 747.549 444.385V441.869H746.71L745.871 441.031L745.032 441.869L744.193 439.354L742.515 437.677V436.838C741.676 436 739.998 435.162 739.159 434.323L736.642 432.646L735.803 430.969V429.292L734.964 427.615H734.125C734.125 426.777 733.286 425.1 733.286 424.262V423.423L732.447 422.585L731.608 421.746L729.93 422.585V420.069V419.231V417.554L729.091 416.715V415.877H728.252V414.2L727.413 413.362L726.574 414.2V415.038L725.735 416.715L724.896 418.392V419.231L724.057 420.069V421.746V423.423V424.262V425.1L723.218 426.777V428.454L722.379 429.292L721.54 430.969L719.862 431.808L717.345 430.969V430.131L716.506 429.292H715.667L713.989 427.615L713.15 426.777V424.262L711.472 423.423V422.585L712.311 421.746L713.15 420.908V420.069H713.989L714.828 419.231L715.667 417.554L713.15 415.877H712.311L710.633 416.715L708.955 415.877H708.116L706.438 415.038L705.599 414.2L703.921 413.362H703.082L704.76 414.2V415.038L703.082 415.877H702.243L700.565 416.715L699.726 418.392V419.231L698.887 420.069L698.048 421.746L698.887 423.423H697.209H695.531L693.853 421.746L692.175 420.908C691.336 420.908 690.497 421.746 689.658 421.746V422.585H688.819V423.423H687.98H686.302L684.624 424.262V425.938L683.785 425.1L682.946 425.938L683.785 426.777L682.946 427.615L682.107 425.1L680.429 426.777C680.429 427.615 680.429 428.454 680.429 429.292L678.751 430.131L677.912 431.808L676.234 432.646L673.717 433.485H672.039H671.2V434.323H669.522L667.844 435.162H667.005H666.166L664.488 436L663.649 436.838L661.971 440.192L661.132 441.869V440.192L660.293 441.869V443.546V445.223L659.454 446.061V447.738L660.293 448.577V449.415L661.132 451.092V452.769L660.293 451.931L659.454 451.092L660.293 453.608L659.454 452.769V453.608L661.132 455.285V456.962L661.971 457.8V458.638L662.81 460.315V461.992V463.669L663.649 466.185V467.862V469.538V470.377V471.215H662.81V472.892L664.488 473.731L667.005 475.408C667.844 475.408 669.522 475.408 670.361 475.408L671.2 474.569L672.039 473.731H672.878L674.556 472.054H676.234H677.912L679.59 472.892H681.268H682.946L683.785 472.054L684.624 470.377L686.302 469.538L688.819 467.862H691.336C693.014 467.023 695.531 466.185 697.209 466.185H701.404L703.921 467.862H705.599L708.955 469.538L708.116 470.377L708.955 471.215L710.633 472.892V474.569L712.311 475.408L713.15 472.892L714.828 472.054L716.506 469.538V471.215L715.667 472.892V474.569L714.828 476.246L716.506 475.408L717.345 473.731L718.184 476.246L717.345 477.923H719.862L720.701 478.762L721.54 480.438V482.115L723.218 483.792L725.735 484.631H727.413C728.252 484.631 729.93 485.469 730.769 486.308L732.447 483.792L734.125 482.954V484.631L735.803 485.469L737.481 487.146L739.159 485.469L739.998 484.631L742.515 483.792H745.032L746.71 482.954V482.115V480.438L747.549 477.923L748.388 476.246L749.227 473.731L750.066 472.054L750.905 469.538L752.583 467.862L753.422 465.346L754.261 463.669V461.992C754.261 461.154 755.1 459.477 755.1 458.638V456.123L754.261 453.608L752.583 452.769ZM686.302 408.331L683.785 410.008L682.946 411.685V412.523L684.624 411.685L686.302 410.008C687.98 409.169 689.658 409.169 690.497 408.331L691.336 407.492H690.497H689.658H687.98L686.302 408.331ZM670.361 407.492L669.522 406.654L668.683 407.492H667.005L666.166 409.169H667.844C669.522 409.169 670.361 408.331 672.039 408.331L671.2 407.492H670.361ZM677.912 407.492L676.234 406.654L674.556 407.492V408.331H677.912L681.268 407.492V405.815L679.59 407.492H677.912ZM661.971 408.331L664.488 407.492L661.971 405.815L658.615 404.977L657.776 403.3L653.581 402.462L652.742 403.3H648.547V402.462H647.708L646.03 401.623H643.513L641.835 404.138H644.352V404.977L648.547 405.815H649.386H651.064L653.581 406.654L656.098 407.492H658.615H661.132L661.971 408.331ZM739.159 401.623L734.964 399.946V398.269H734.125L732.447 397.431L728.252 395.754L724.057 394.077L721.54 393.238C720.701 392.4 719.023 392.4 718.184 391.561H716.506L713.15 393.238L711.472 395.754L708.955 394.077L708.116 389.885V389.046L704.76 388.208L703.921 389.046L699.726 389.885L700.565 390.723L702.243 391.561L703.082 393.238H706.438V394.077H704.76L702.243 394.915L703.921 395.754V396.592L704.76 397.431H705.599L706.438 396.592L709.794 399.108H711.472L715.667 400.785L716.506 402.462L717.345 404.977L715.667 405.815L714.828 407.492H718.184L719.023 406.654L721.54 407.492L723.218 409.169H725.735H727.413L729.091 408.331V406.654L730.769 405.815L732.447 404.977L735.803 405.815L736.642 407.492L738.32 409.169L739.998 410.846C741.676 410.846 742.515 411.685 744.193 411.685L745.032 412.523H746.71V411.685L744.193 410.846L745.032 410.008H743.354V409.169H741.676L740.837 406.654L738.32 404.977V403.3H740.837L739.159 401.623ZM672.878 390.723V392.4L672.039 394.077L672.878 395.754H673.717V398.269L672.878 400.785L673.717 401.623H675.395C675.395 399.946 675.395 397.431 675.395 395.754L677.073 394.915V397.431L678.751 399.108V399.946L679.59 400.785L682.107 399.946H679.59L680.429 400.785L681.268 399.946V398.269L678.751 395.754L679.59 394.915L677.073 391.561L678.751 390.723L679.59 389.046H680.429V388.208L677.912 389.885L676.234 390.723L674.556 389.046V387.369H676.234H680.429L682.946 388.208L684.624 387.369L686.302 384.854V384.015L683.785 385.692H681.268H677.912L676.234 384.854L674.556 386.531L673.717 387.369L672.878 390.723ZM641.835 397.431L642.674 394.915L641.835 393.238H640.157L639.318 391.561V389.885H637.64L635.962 389.046L636.801 387.369L635.123 386.531L633.445 384.854L631.767 383.177H629.25L626.733 380.662L625.055 379.823L623.377 378.146L621.699 375.631C620.021 375.631 618.343 374.792 616.665 374.792V375.631L619.182 378.146L620.86 379.823L621.699 381.5L624.216 383.177L625.055 384.854L625.894 386.531L627.572 388.208L629.25 391.561L630.089 393.238L631.767 394.915L632.606 396.592L635.962 398.269L637.64 399.946H640.157L641.835 397.431ZM667.005 371.438L666.166 373.115L664.488 374.792L662.81 376.469L661.971 377.308L661.132 378.985L659.454 380.662L656.937 381.5H654.42V383.177L652.742 384.015L651.064 383.177L649.386 384.854V387.369V389.046L650.225 390.723L651.064 391.561V394.915H652.742H654.42L655.259 395.754L657.776 394.915L658.615 395.754H660.293L661.132 397.431L663.649 396.592V397.431L664.488 394.077V391.561L667.005 389.885V387.369L667.844 385.692H670.361L667.844 383.177V382.338L666.166 379.823L667.844 377.308L669.522 376.469V375.631H671.2V374.792C670.361 374.792 668.683 373.954 667.844 373.115V372.277L667.005 371.438ZM682.946 367.246L681.268 368.085L679.59 368.923V370.6V371.438L681.268 369.762H682.107L682.946 368.923L684.624 369.762L683.785 370.6L684.624 372.277L687.141 373.954L687.98 373.115L687.141 371.438L687.98 370.6L688.819 373.115L689.658 370.6C689.658 368.923 688.819 367.246 688.819 365.569L687.141 364.731V366.408H685.463V367.246L683.785 368.085L682.946 367.246ZM681.268 362.215V363.892L680.429 364.731L682.107 366.408L682.946 365.569L683.785 363.892L684.624 363.054V360.538L682.946 363.054V361.377L681.268 362.215ZM672.039 363.054L671.2 364.731L669.522 366.408L668.683 368.085L672.039 365.569L672.878 363.892L674.556 362.215V360.538L672.039 363.054ZM687.98 358.862L687.141 358.023H684.624L686.302 359.7V360.538H684.624V362.215H685.463V363.892L686.302 363.054L685.463 361.377V360.538L687.141 361.377L687.98 358.862ZM680.429 343.769H677.912H676.234L675.395 346.285V350.477L674.556 349.638V352.154V352.992L675.395 354.669V353.831L676.234 354.669L675.395 355.508V356.346L676.234 357.185H678.751L680.429 358.862L681.268 358.023L682.107 359.7L683.785 360.538V359.7V356.346V354.669L681.268 352.992H680.429H679.59L678.751 351.315V349.638L680.429 348.8L681.268 347.123L679.59 345.446L680.429 343.769ZM214.784 340.415H216.462H218.14H219.818V339.577L218.14 337.9H216.462V337.062L214.784 336.223H213.945C212.267 335.385 211.428 333.708 209.75 332.869H207.233L206.394 332.031L203.877 331.192H202.199H200.521H199.682H198.004L197.165 332.031L196.326 332.869L195.487 333.708L194.648 334.546H195.487H196.326V333.708H197.165L198.843 332.031H201.36V333.708L202.199 334.546H205.555L206.394 335.385L208.911 336.223H210.589L211.428 337.9L212.267 338.738H213.945L214.784 339.577L213.106 341.254L214.784 340.415ZM705.599 305.2L706.438 304.362L707.277 305.2L708.955 303.523V302.685L707.277 301.846L706.438 302.685H704.76L703.082 304.362V306.038L704.76 306.877L705.599 305.2ZM719.023 291.785L715.667 295.138L713.989 293.462L711.472 298.492L708.955 297.654L703.921 298.492L702.243 300.169L699.726 301.846L698.887 303.523L696.37 304.362L697.209 306.038L698.887 306.877L698.048 309.392L698.887 310.231L700.565 309.392L702.243 304.362L699.726 302.685H702.243L704.76 301.008L708.955 300.169V302.685L710.633 303.523L713.989 300.169H718.184L721.54 298.492L722.379 296.815V295.138L723.218 292.623V289.269L725.735 285.915V283.4L724.896 280.885L722.379 281.723L721.54 283.4V286.754L719.862 290.108L719.023 291.785ZM722.379 275.015L721.54 277.531V280.885H724.057L725.735 277.531L729.091 280.046L730.769 276.692L734.125 275.854L733.286 272.5H732.447H730.769L729.091 271.662L726.574 268.308L725.735 270.823L724.896 275.015H722.379ZM263.446 247.346L264.285 246.508H263.446L260.929 247.346L259.251 249.862L256.734 255.731L255.056 258.246L255.895 259.085L254.217 259.923V260.762H258.412H260.929L263.446 261.6L261.768 263.277H263.446L265.963 259.923L266.802 260.762L265.963 263.277L268.48 264.115H269.319L270.158 260.762L269.319 258.246V256.569L267.641 257.408L268.48 254.892L265.963 254.054L265.124 254.892L263.446 254.054L264.285 252.377L262.607 251.538L260.929 252.377C261.768 250.7 262.607 249.023 263.446 247.346ZM725.735 244.831L727.413 248.185V253.215L726.574 255.731V259.923V263.277L727.413 265.792L729.091 263.277L730.769 264.954V262.438L728.252 259.085L729.93 254.054L733.286 254.892L729.93 249.023L729.091 244.831V241.477C728.252 238.962 728.252 237.285 727.413 234.769L726.574 235.608L727.413 237.285L724.896 238.962L725.735 244.831ZM373.355 245.669L377.55 243.154L379.228 239.8V237.285L380.067 234.769L377.55 232.254H375.872C374.194 233.931 372.516 235.608 370.838 237.285L371.677 241.477L369.999 245.669H373.355ZM380.906 231.415L382.584 229.738L383.423 230.577L382.584 232.254L383.423 233.092L385.94 233.931L387.618 236.446V238.962H384.262L383.423 241.477L385.101 243.154L382.584 243.992L383.423 245.669L386.779 246.508L383.423 247.346L380.067 251.538L380.906 252.377L382.584 250.7H385.101L386.779 249.023L387.618 249.862L391.813 249.023H395.169L397.686 247.346L396.847 245.669L397.686 244.831V242.315L395.169 241.477L394.33 239.8L392.652 235.608L390.974 234.769L388.457 229.738H385.94L388.457 225.546L389.296 222.192H386.779H384.262L386.779 217.162H384.262H382.584L380.906 220.515L380.067 224.708L380.906 227.223V231.415ZM361.609 185.3L359.092 181.108L359.931 177.754H355.736L352.38 180.269L349.024 178.592L345.668 181.946L342.312 177.754L338.956 178.592L337.278 181.946L342.312 183.623V185.3L338.117 186.138L343.151 188.654L340.634 191.169C343.99 192.008 347.346 192.846 349.863 193.685C353.219 192.008 355.736 190.331 358.253 188.654L361.609 185.3ZM311.269 400.785L310.43 399.946H308.752L307.074 399.108L303.718 396.592L300.362 394.915H297.006L292.811 394.077L290.294 394.915V393.238L289.455 391.561L284.421 389.885L281.065 389.046L279.387 390.723V388.208H275.192L274.353 387.369L276.031 385.692V384.015H275.192L273.514 379.823L272.675 378.146H271.836V377.308L269.319 375.631C267.641 374.792 265.963 374.792 264.285 373.954H262.607V374.792L260.09 373.954C259.251 373.115 258.412 372.277 257.573 372.277H256.734V371.438L255.056 369.762C254.217 368.923 253.378 368.923 252.539 368.085H251.7V366.408L249.183 364.731H247.505L246.666 363.892L248.344 363.054C246.666 363.054 244.149 363.054 242.471 363.054V363.892L240.793 364.731H239.115L237.437 363.892H234.92H232.403V363.054L230.725 361.377H229.047L228.208 359.7L227.369 360.538V361.377L226.53 362.215V363.892L227.369 364.731L226.53 366.408H225.691L224.852 364.731L225.691 363.054V362.215L224.852 361.377H226.53V360.538L227.369 359.7L226.53 358.862H225.691L224.852 359.7C224.013 360.538 223.174 360.538 222.335 361.377H220.657V362.215H218.979L217.301 363.054L216.462 364.731V365.569H215.623L213.945 367.246H213.106L212.267 366.408L211.428 365.569H210.589H208.911H207.233L206.394 366.408L204.716 367.246L203.877 368.085H203.038L202.199 367.246H201.36V366.408C200.521 365.569 199.682 364.731 198.843 363.892L198.004 362.215V361.377L198.843 360.538V359.7V358.862V358.023V357.185V356.346V355.508L199.682 354.669V353.831V352.992L198.843 352.154H198.004L197.165 351.315L196.326 350.477H195.487H194.648H193.809H192.97H192.131H191.292H190.453H189.614H188.775L187.936 351.315H187.097L186.258 350.477L187.097 349.638H187.936L188.775 348.8V347.962V347.123V346.285V345.446L189.614 346.285C189.614 345.446 190.453 344.608 190.453 342.931L189.614 342.092L190.453 340.415L192.131 338.738V337.9L191.292 337.062H189.614H187.936L185.419 337.9L183.741 338.738V339.577V341.254L182.902 342.931L181.224 343.769C180.385 343.769 178.707 344.608 177.868 344.608H176.19L174.512 345.446L173.673 344.608L171.156 343.769L167.8 341.254V340.415L166.122 338.738L165.283 337.062L164.444 336.223V334.546V333.708V330.354V328.677L165.283 326.162L164.444 325.323V324.485V322.808L165.283 321.969L166.961 320.292L169.478 319.454L171.995 317.777L173.673 316.938H175.351L177.029 317.777H178.707L180.385 319.454H182.063L182.902 318.615H183.741H184.58V315.262V314.423L183.741 313.585H184.58H186.258H187.936H190.453L192.131 314.423L192.97 316.1L195.487 315.262H196.326L198.004 317.777L198.843 319.454L198.004 321.131V321.969C198.843 323.646 199.682 324.485 200.521 326.162L201.36 327V327.838H202.199H203.038L203.877 326.162C203.877 325.323 203.877 324.485 203.877 323.646L203.038 320.292V319.454L202.199 317.777L201.36 315.262V313.585V311.908L202.199 310.231L203.877 308.554L206.394 306.877V306.038L207.233 305.2H208.072L209.75 303.523L212.267 302.685L213.945 300.169V297.654V296.815H213.106V294.3L214.784 289.269L215.623 287.592V290.108L216.462 290.946L215.623 292.623C216.462 291.785 217.301 290.108 217.301 289.269V288.431L216.462 287.592L215.623 285.915L216.462 286.754H217.301V287.592L218.979 285.077L219.818 282.562H218.979L219.818 281.723H221.496L224.852 280.885L224.013 280.046L220.657 280.885L222.335 280.046C223.174 280.046 224.013 280.046 224.852 280.046L226.53 279.208H227.369L229.047 278.369V277.531L228.208 276.692V277.531H227.369L226.53 275.854V274.177C227.369 273.338 227.369 272.5 228.208 271.662C229.886 270.823 231.564 269.985 233.242 269.985L235.759 268.308V267.469H238.276H241.632L237.437 269.985V272.5H239.115L241.632 269.985L244.149 268.308L249.183 266.631L251.7 264.115L250.022 263.277V260.762L247.505 264.954L243.31 265.792L239.954 264.115L239.115 261.6L238.276 258.246L240.793 255.731L239.115 254.054H235.759L230.725 257.408L227.369 261.6L225.691 262.438L228.208 259.085L231.564 254.054L234.92 252.377L236.598 249.862H239.115H242.471L247.505 250.7L251.7 249.862L255.056 246.508L259.251 244.831C260.09 243.992 261.768 243.154 262.607 242.315V238.123L261.768 236.446L260.09 238.123L259.251 234.769L257.573 233.092L254.217 232.254L251.7 229.738L248.344 227.223L249.183 224.708C247.505 221.354 245.827 217.162 243.31 213.808L241.632 209.615L239.954 212.131L237.437 217.162L234.92 218.838L233.242 216.323L230.725 215.485L229.886 209.615V205.423H226.53L225.691 203.746L223.174 201.231L220.657 199.554L218.979 201.231L216.462 200.392L212.267 198.715L210.589 199.554L211.428 207.1L212.267 211.292L209.75 216.323L212.267 219.677L213.945 223.031V225.546L212.267 228.062L209.75 230.577L206.394 232.254L208.072 234.769L208.911 240.638L207.233 244.831L206.394 247.346L203.038 243.992L201.36 239.8L200.521 235.608V232.254H198.004H193.809L191.292 230.577L188.775 229.738L187.097 228.062L184.58 226.385L180.385 224.708L177.029 225.546L176.19 220.515L175.351 216.323L171.995 215.485V210.454L172.834 207.1L175.351 201.231L177.868 197.038L180.385 196.2V192.846L182.063 190.331H185.419L187.936 186.977L188.775 184.462L191.292 179.431L192.131 176.915L194.648 178.592L198.004 177.754L202.199 173.562V170.208L201.36 166.854L203.038 163.5V160.146L199.682 156.792L196.326 155.954L192.97 155.115V162.662L191.292 168.531L188.775 172.723L186.258 168.531L187.097 163.5L184.58 160.146L181.224 165.177V158.469L177.029 156.792L178.707 153.438L175.351 145.054L172.834 141.7L169.478 140.862L167.8 146.731V154.277L170.317 156.792L172.834 160.985L171.995 167.692H170.317L168.639 172.723V166.854L165.283 164.338L163.605 165.177V169.369H160.249L156.893 170.208L152.698 167.692L150.181 168.531L147.664 165.177L145.986 163.5H143.469H140.952L139.274 166.015L141.791 168.531L138.435 171.885L135.918 168.531L134.24 169.369L127.528 170.208L123.333 168.531L126.689 165.177L123.333 161.823H120.816L117.46 160.985L111.587 158.469L109.07 155.954H106.553L105.714 157.631L103.197 158.469V153.438L99.841 157.631L95.646 151.762L93.968 150.923L93.129 155.115L91.451 156.792L89.773 154.277L85.578 155.115L82.222 158.469L78.866 157.631L76.349 159.308L74.671 161.823L72.154 160.985L68.798 157.631C66.281 156.792 64.603 155.954 62.086 155.115L58.73 153.438L54.535 155.115L52.857 154.277L48.662 153.438L43.628 150.923L41.111 151.762L37.755 150.923V149.246L33.56 148.408L32.721 150.085L30.204 146.731L26.848 145.054L23.492 149.246L20.975 148.408L16.78 151.762L14.263 152.6L11.746 155.954L10.907 159.308L8.39 161.823H4.195L2.517 165.177L5.873 166.854L8.39 170.208L10.068 173.562L12.585 176.077L14.263 179.431H9.229V176.915H8.39L3.356 179.431L0 181.946L3.356 185.3L4.195 187.815L7.551 188.654L10.907 187.815L12.585 188.654L13.424 187.815L15.941 186.977H17.619L15.102 188.654L16.78 190.331V192.008L15.102 193.685L13.424 192.846L11.746 195.362L10.068 194.523H8.39L7.551 197.038L5.873 199.554L5.034 202.069L6.712 203.746V206.262L8.39 209.615L10.068 212.131L13.424 211.292L15.102 212.969L14.263 214.646V217.162H15.941L18.458 215.485L19.297 218L20.136 216.323L21.814 218.838L23.492 217.162L24.331 218L26.848 216.323L26.009 218.838V222.192L24.331 223.869L23.492 224.708L20.136 227.223L19.297 228.9L16.78 229.738L14.263 232.254L11.746 233.931L9.229 235.608V236.446L13.424 235.608L15.102 233.931C15.102 232.254 16.78 231.415 18.458 230.577H20.136L22.653 228.9L23.492 227.223L26.848 224.708L27.687 223.031L30.204 221.354L32.721 219.677L35.238 216.323L32.721 213.808L36.077 210.454L37.755 207.1L41.111 204.585L41.95 206.262L39.433 207.938L38.594 212.969V215.485L41.111 213.808L42.789 212.131L45.306 211.292H46.984L46.145 207.938L48.662 207.1L51.179 208.777L55.374 211.292H58.73C61.247 212.131 62.925 212.969 65.442 213.808L70.476 218.838L72.993 220.515H76.349H78.866L80.544 224.708L83.9 228.062L84.739 231.415L86.417 233.092L88.095 234.769V236.446L90.612 238.962V242.315L93.968 243.992V246.508L95.646 249.862L99.841 251.538L101.519 253.215L105.714 256.569L106.553 259.085V261.6L105.714 262.438L104.875 259.085L101.519 258.246V259.085L102.358 260.762L103.197 264.115L104.036 268.308L103.197 274.177L102.358 277.531L103.197 280.046V282.562L102.358 285.077L103.197 286.754V289.269L104.875 291.785L105.714 292.623V293.462L107.392 297.654L109.909 300.169V301.846L110.748 302.685H113.265L114.104 303.523H115.782V304.362H116.621L118.299 306.038V307.715L119.138 310.231C119.977 311.908 120.816 314.423 121.655 316.1L123.333 316.938L125.011 318.615V319.454L124.172 320.292H123.333L125.011 321.969L126.689 322.808L127.528 323.646C128.367 324.485 129.206 325.323 130.045 325.323V327V328.677L130.884 329.515L132.562 330.354L134.24 332.031L135.079 333.708L135.918 332.869V332.031C135.079 331.192 135.079 330.354 134.24 329.515H133.401V327.838C133.401 327 132.562 326.162 131.723 325.323L132.562 322.808L130.884 321.131L130.045 320.292L129.206 319.454L128.367 317.777V316.938V316.1L125.85 314.423L125.011 313.585V311.908V310.231V309.392L126.689 310.231H127.528L129.206 311.069V311.908L130.045 313.585L131.723 315.262V316.1C132.562 316.938 133.401 317.777 134.24 318.615H135.918L136.757 320.292L138.435 321.969L139.274 322.808V324.485L140.113 325.323L141.791 326.162L142.63 327.838L145.147 329.515L146.825 332.031L147.664 333.708V334.546L148.503 335.385V336.223L147.664 337.062V337.9H146.825L147.664 338.738L148.503 340.415L151.02 342.092L151.859 342.931L154.376 343.769H156.054L156.893 344.608L158.571 345.446L161.088 346.285H162.766L165.283 347.123L166.961 347.962L168.639 348.8H169.478L171.156 347.962H172.834L174.512 348.8L175.351 349.638L177.868 352.154L179.546 352.992L180.385 353.831H182.063L182.902 354.669L183.741 355.508H185.419L186.258 356.346H187.097H188.775V355.508H189.614V356.346L190.453 357.185L191.292 358.023L192.131 358.862C192.97 359.7 193.809 359.7 193.809 360.538L192.97 361.377H193.809V362.215V363.054V363.892H194.648L195.487 364.731L196.326 363.892V363.054L197.165 363.892V364.731H198.004L198.843 365.569L199.682 366.408V367.246L200.521 368.085L202.199 368.923V368.085H203.038H203.877H204.716L205.555 368.923H206.394V370.6H207.233H208.072L207.233 368.923V368.085H208.072L208.911 367.246L209.75 366.408H210.589L211.428 367.246L212.267 368.085H213.106L209.75 368.923L210.589 370.6L211.428 371.438L212.267 372.277V373.954L211.428 374.792L212.267 377.308L211.428 378.985L212.267 379.823C211.428 380.662 210.589 381.5 210.589 382.338L209.75 381.5V382.338V383.177H208.911V384.015L207.233 384.854L205.555 385.692V386.531L204.716 388.208V389.885H203.877V392.4L203.038 393.238L204.716 394.077L205.555 393.238L206.394 394.077L205.555 395.754L203.877 397.431L203.038 399.108L203.877 401.623L203.038 402.462L204.716 403.3L206.394 404.977L207.233 406.654L208.072 407.492C209.75 410.846 211.428 413.361 212.267 416.715L213.945 420.069V420.908L214.784 422.585L216.462 424.262L220.657 426.777L225.691 429.292V430.131L228.208 431.808L229.047 435.162V439.354C228.208 444.385 227.369 450.254 227.369 455.285L226.53 458.638V461.992L225.691 464.508L226.53 468.7L225.691 472.892C224.852 476.246 223.174 478.762 222.335 482.115H221.496V485.469L222.335 487.985L221.496 489.662C220.657 493.015 220.657 496.369 219.818 499.723L221.496 500.561L222.335 496.369L224.013 497.208L223.174 503.915L220.657 503.077L219.818 508.946L217.301 512.3L220.657 513.138L218.14 515.654L217.301 519.008V524.877L218.14 527.392L217.301 529.908L218.14 532.423L220.657 534.938L223.174 537.454L225.691 539.131H226.53V535.777L229.047 534.1L229.886 533.261H231.564H232.403L230.725 530.746L229.886 526.554L230.725 524.877L233.242 523.2L234.92 519.008L237.437 517.331L238.276 513.977L235.759 513.138L233.242 510.623L234.081 508.108L235.759 506.431H238.276L239.115 504.754V501.4L243.31 498.885L245.827 498.046L244.988 496.369L243.31 497.208L241.632 496.369V493.015L242.471 492.177L244.988 493.015L247.505 492.177L249.183 491.338L247.505 490.5L248.344 487.985L247.505 486.308H250.022L255.056 485.469L258.412 483.792L260.929 479.6V477.923L259.251 476.246V474.569L256.734 473.731V472.054L258.412 473.731H260.09L262.607 474.569H264.285L265.963 475.408L268.48 473.731L269.319 472.054L270.997 470.377L271.836 467.862L273.514 466.185L275.192 463.669L277.709 458.638L279.387 456.962L280.226 455.285L281.065 452.769V451.092V449.415L282.743 446.9L285.26 445.223L287.777 444.385L289.455 443.546L292.811 442.708H295.328L296.167 441.031L297.845 440.192V437.677L300.362 434.323V430.969L301.201 430.131C301.201 428.454 302.04 426.777 302.04 425.1V420.908L302.879 419.231H303.718L305.396 417.554L307.074 415.038L310.43 411.685L311.269 410.008L312.108 405.815C312.108 403.3 311.269 401.623 311.269 400.785ZM121.655 145.892L116.621 148.408L117.46 150.923H120.816L125.85 150.085L130.045 151.762L126.689 152.6H123.333L119.977 153.438L119.138 155.115L121.655 160.146L123.333 159.308L126.689 160.985L128.367 164.338C131.723 163.5 135.079 163.5 138.435 162.662L142.63 160.146H145.147L149.342 161.823L153.537 162.662L154.376 160.146L152.698 157.631L156.893 156.792V153.438C154.376 150.923 151.02 149.246 148.503 146.731C147.664 142.538 146.825 138.346 145.986 134.154L143.469 130.8L140.952 129.123L139.274 129.962L140.952 138.346L140.113 141.7L138.435 134.154L135.918 131.638L133.401 135.831L130.045 131.638L125.011 134.154L125.85 130.8L124.172 129.962L117.46 134.992L115.782 138.346L114.104 144.215L118.299 145.892H121.655ZM234.92 154.277L233.242 151.762L227.369 149.246L224.852 144.215L220.657 145.892V142.538L216.462 138.346L211.428 134.154L208.911 137.508L203.877 140.023V134.992L199.682 126.608L194.648 129.962L192.97 136.669L191.292 131.638L192.97 126.608L187.097 129.123L184.58 131.638L182.902 138.346L183.741 145.892H187.097L184.58 149.246L186.258 151.762L190.453 152.6L195.487 154.277L203.877 155.954L208.072 155.115L208.911 153.438L210.589 155.954H212.267L214.784 160.146L213.106 161.823L218.14 164.338L221.496 167.692L222.335 170.208L223.174 172.723L219.818 178.592L218.979 181.108L219.818 182.785L214.784 183.623H210.589L209.75 187.815L211.428 189.492L218.14 188.654V186.977C220.657 188.654 222.335 190.331 224.852 192.008L224.013 193.685L226.53 196.2L231.564 199.554L238.276 201.231V199.554C236.598 197.038 234.081 194.523 232.403 192.008L238.276 196.2L241.632 197.877L242.471 194.523L240.793 188.654L239.954 186.977L236.598 184.462L234.081 181.108V177.754L237.437 176.915L240.793 182.785L243.31 185.3L247.505 178.592L248.344 174.4H244.988L241.632 168.531L238.276 166.854L232.403 163.5L236.598 160.146L234.92 154.277ZM158.571 125.769L156.054 129.962L158.571 134.992L153.537 134.154V136.669L159.41 142.538L161.088 145.054L163.605 145.892L167.8 143.377L168.639 136.669L165.283 133.315L167.8 129.123L166.961 126.608L162.766 127.446L158.571 125.769ZM170.317 125.769L169.478 129.123V133.315L171.156 140.023H173.673L176.19 134.154L178.707 132.477L182.063 124.931L177.868 123.254H172.834L170.317 125.769ZM723.218 117.385H731.608L733.286 110.677L724.896 105.646L719.023 104.808L715.667 106.485L714.828 113.192L719.862 119.062L723.218 117.385ZM156.054 103.131H153.537V110.677L157.732 109.838V114.869L160.249 116.546L164.444 115.708L165.283 109V103.969L163.605 98.9385V100.615L159.41 99.7769L156.054 103.131ZM131.723 114.031L126.689 118.223V120.738H130.045L135.918 116.546L143.469 114.869L145.147 110.677V105.646L142.63 104.808L140.952 106.485L140.113 104.808L139.274 99.7769L136.757 98.9385L134.24 102.292L137.596 111.515L134.24 110.677L130.045 104.808L123.333 101.454L120.816 104.808L117.46 114.031L120.816 115.708L131.723 114.031ZM514.307 144.215L518.502 145.892L519.341 149.246L526.892 150.085L528.57 149.246L524.375 143.377L523.536 137.508C526.053 132.477 528.57 126.608 531.087 121.577L538.638 113.192C543.672 109.838 548.706 107.323 553.74 103.969L555.418 100.615L553.74 97.2615L549.545 98.9385L545.35 102.292L536.96 103.969L529.409 109.838L524.375 114.869L525.214 119.062L519.341 126.608L521.858 127.446L516.824 134.154V138.346L514.307 140.023V144.215ZM173.673 103.131L176.19 107.323V112.354L177.029 117.385L182.902 119.9L187.097 120.738H192.131L198.843 119.062L202.199 119.9L205.555 118.223L207.233 115.708L206.394 111.515L203.877 108.162L199.682 107.323L194.648 108.162L191.292 109.838L187.936 109H184.58L182.902 106.485L180.385 103.969L181.224 100.615L179.546 97.2615H175.351L172.834 93.9077L167.8 93.0692L166.961 97.2615L169.478 100.615L173.673 103.131ZM149.342 77.9769L146.825 81.3308L151.859 82.1692L156.054 85.5231L160.249 86.3615L159.41 82.1692L157.732 76.3L151.02 72.1077L146.825 70.4308V75.4615L149.342 77.9769ZM171.156 69.5923H175.351L173.673 72.9462V77.1385L176.19 82.1692L181.224 83.8461L185.419 83.0077L189.614 73.7846L192.97 70.4308L190.453 66.2385L188.775 57.0154C186.258 55.3385 183.741 53.6615 181.224 51.1462L177.868 42.7615L172.834 43.6L173.673 46.9538L171.156 47.7923L169.478 51.9846L167.8 57.8538L169.478 63.7231L171.156 69.5923ZM182.063 42.7615L183.741 48.6308L187.936 53.6615L196.326 52.8231L201.36 54.5L198.004 59.5308L196.326 57.8538L189.614 57.0154L190.453 63.7231L193.809 68.7538L192.97 72.9462L188.775 75.4615L187.097 79.6538L191.292 82.1692L194.648 89.7154L188.775 84.6846L187.097 85.5231L187.936 93.0692L183.741 95.5846V100.615L187.936 101.454L191.292 102.292L198.004 100.615L203.877 103.131L209.75 97.2615V94.7461H205.555V92.2308L208.911 88.8769L209.75 84.6846L213.106 81.3308L215.623 77.1385L213.945 71.2692L215.623 68.7538L212.267 67.0769L218.979 65.4L220.657 62.8846L225.691 60.3692L229.886 49.4692L234.081 45.2769L239.954 36.0538H234.92L237.437 32.7L243.31 29.3462L249.183 21.8V16.7692L244.988 11.7385L239.954 12.5769C234.081 10.9 229.047 10.0615 223.174 8.38461L216.462 11.7385L215.623 9.22308L208.072 10.0615L203.877 12.5769L200.521 15.9308L198.843 25.9923L196.326 20.9615L193.809 20.1231L190.453 26.8308L185.419 29.3462H182.902L179.546 32.7L180.385 38.5692L182.063 42.7615ZM338.117 153.438H332.244L334.761 150.085L333.922 145.054C335.6 147.569 337.278 149.246 338.956 151.762L343.151 150.085L342.312 144.215L338.956 140.023L335.6 138.346L336.439 136.669L341.473 140.023V136.669L338.117 129.962H341.473L344.829 128.285L345.668 125.769L343.151 122.415L348.185 121.577L344.829 114.031L347.346 113.192L346.507 104.808L342.312 99.7769L346.507 96.4231L349.863 95.5846L347.346 88.8769V76.3C349.024 70.4308 350.702 64.5615 352.38 58.6923L347.346 57.8538L354.897 55.3385L356.575 51.9846L365.804 41.0846L364.126 34.3769L357.414 31.0231L345.668 37.7308L339.795 43.6L342.312 34.3769L339.795 29.3462L335.6 34.3769L328.888 28.5077L320.498 30.1846L318.82 27.6692C326.371 26.8308 333.083 25.9923 340.634 25.1538L344.829 18.4462L330.566 2.51538L312.108 0L303.718 1.67693L300.362 9.22308L291.972 8.38461L284.421 20.1231V27.6692L290.294 36.8923L285.26 31.8615L281.904 30.1846L276.031 23.4769L270.158 32.7L267.641 27.6692H260.09L252.539 30.1846L246.666 34.3769L247.505 41.9231L244.149 43.6L235.759 53.6615L234.081 59.5308L240.793 64.5615L239.954 69.5923C234.081 73.7846 228.208 77.1385 222.335 81.3308V85.5231L227.369 89.7154L237.437 92.2308L232.403 93.0692L226.53 96.4231L230.725 103.131L233.242 106.485C237.437 105.646 240.793 105.646 244.988 105.646L250.022 106.485L255.895 112.354V116.546L259.251 119.9C260.929 124.931 262.607 129.962 264.285 134.992L265.963 138.346L263.446 145.054L265.124 146.731L267.641 145.892C269.319 148.408 271.836 150.923 273.514 152.6L268.48 149.246H265.963L265.124 152.6V157.631L267.641 160.146L270.158 159.308C271.836 158.469 272.675 156.792 274.353 155.954L273.514 160.985V163.5L270.158 166.015L267.641 173.562L269.319 176.077L268.48 180.269L271.836 185.3V190.331L272.675 193.685L276.87 200.392L278.548 205.423L281.065 207.938H286.099L289.455 212.131H292.811C293.65 209.615 294.489 206.262 295.328 203.746L293.65 197.877L297.845 193.685L298.684 190.331V186.138L300.362 182.785C302.879 181.946 304.557 181.108 307.074 180.269H308.752L313.786 176.077L317.142 169.369L319.659 166.854H322.176L328.888 164.338L335.6 159.308L341.473 153.438H338.117ZM834.805 174.4L828.093 173.562L828.932 177.754L827.254 176.077V172.723L821.381 166.854L817.186 163.5L814.669 160.985L812.152 159.308L805.44 155.954H800.406L792.855 154.277L792.016 157.631L793.694 161.823L791.177 163.5L786.982 157.631L782.787 158.469L778.592 156.792H774.397L771.041 158.469L768.524 156.792V151.762L766.846 149.246L761.812 148.408L752.583 150.085L746.71 144.215L745.032 140.023L724.057 134.992L720.701 138.346L722.379 145.054L718.184 144.215L716.506 145.892L712.311 143.377L708.116 145.054L704.76 141.7L702.243 149.246L697.209 146.731L693.853 140.862L695.531 137.508L694.692 132.477L690.497 128.285H687.141L682.107 126.608V132.477L672.039 131.638L671.2 127.446L663.649 125.769L660.293 127.446L659.454 129.962L658.615 124.931L656.098 126.608L652.742 124.092L650.225 123.254L651.903 120.738L657.776 115.708L660.293 113.192L661.132 108.162L659.454 104.808L654.42 99.7769H647.708L645.191 102.292L644.352 96.4231L639.318 94.7461L642.674 92.2308L638.479 88.8769L632.606 93.0692L630.089 97.2615L629.25 101.454H625.055L620.021 106.485L618.343 104.808L612.47 105.646L611.631 108.162L605.758 109.838L601.563 114.031H599.046L596.529 119.9L598.207 124.092L593.173 124.931H587.3L583.105 126.608V134.992L584.783 141.7L580.588 138.346H575.554L571.359 141.7L572.198 146.731L569.681 145.054L570.52 137.508L569.681 133.315H568.842L569.681 139.185L565.486 144.215L568.842 150.085L567.164 156.792L568.003 160.146L570.52 160.985L569.681 165.177L571.359 168.531L569.681 171.046L568.842 174.4L566.325 176.077L565.486 178.592L562.969 177.754L567.164 169.369L568.003 165.177L565.486 160.985L566.325 151.762L565.486 146.731L562.13 145.054L564.647 139.185L563.808 134.992L557.935 132.477L556.257 134.154L554.579 140.862L550.384 147.569V150.085L551.223 155.115L550.384 158.469L552.901 159.308V160.985L555.418 164.338L553.74 167.692L545.35 160.146L541.994 158.469L535.282 156.792L534.443 159.308L536.96 163.5L534.443 167.692L531.926 163.5L528.57 166.015H524.375L522.697 168.531L520.18 167.692L522.697 163.5H521.019C516.824 166.015 512.629 169.369 507.595 171.885L506.756 176.077L503.4 177.754L501.722 176.077V172.723L505.078 171.885L503.4 168.531L496.688 166.854L498.366 171.046L495.849 171.885L497.527 175.238L495.849 179.431L493.332 177.754H490.815L486.62 182.785L488.298 186.977L486.62 188.654L480.747 185.3L479.069 186.977L480.747 189.492V192.008L478.23 190.331L475.713 188.654V180.269L471.518 176.077L473.196 175.238L483.264 179.431L487.459 177.754L489.976 174.4V170.208L488.298 167.692L479.069 160.146L472.357 158.469L468.162 154.277L465.645 156.792L463.128 152.6L466.484 150.923L459.772 146.731L455.577 148.408H451.382L448.026 154.277H443.831L438.797 157.631C435.441 161.823 432.085 166.015 428.729 171.046C425.373 177.754 422.017 183.623 418.661 190.331L413.627 196.2L407.754 200.392L405.237 203.746L406.076 214.646L406.915 219.677L410.271 222.192L413.627 221.354L418.661 216.323L420.339 218.838L422.017 224.708L423.695 229.738L424.534 233.931H427.051L428.729 230.577H431.246L432.924 226.385L433.763 218.838L436.28 218L438.797 212.969L436.28 210.454L434.602 207.1L436.28 200.392L440.475 196.2L443.831 192.008V188.654L446.348 184.462L450.543 182.785L453.899 185.3V187.815L452.221 188.654L447.187 194.523L444.67 197.877L443.831 201.231L444.67 205.423L443.831 210.454L446.348 212.131L448.026 214.646L452.221 213.808L456.416 212.131H460.611L463.128 214.646L458.933 213.808H456.416L453.899 212.969L451.382 213.808L448.026 215.485V218L449.704 219.677L450.543 218.838C450.543 220.515 449.704 223.031 449.704 224.708H448.026L446.348 221.354L444.67 223.031L443.831 225.546V228.9L444.67 232.254L441.314 233.931L440.475 235.608H437.958V234.769L435.441 233.931C432.924 234.769 431.246 236.446 428.729 237.285L427.051 238.123L426.212 236.446L423.695 234.769L422.017 235.608L419.5 237.285V235.608L416.983 234.769V233.092L416.144 230.577L417.822 227.223L418.661 228.062L419.5 226.385L417.822 225.546V224.708L418.661 223.031V220.515L416.983 222.192L416.144 223.031H414.466L413.627 224.708V225.546V229.738L414.466 232.254V234.769L415.305 236.446L412.788 238.962L411.949 238.123H410.271V238.962H408.593L405.237 240.638L402.72 246.508L401.881 247.346C400.203 248.185 399.364 248.185 397.686 249.023L396.847 252.377L391.813 254.892L389.296 253.215L390.135 257.408L385.94 255.731L382.584 256.569V259.085L385.94 260.762L387.618 262.438L390.135 265.792V272.5L389.296 274.177H385.101H383.423L380.906 273.338H377.55L375.033 272.5L371.677 275.015L372.516 276.692V279.208V280.046L373.355 280.885V282.562L372.516 284.238V285.077L371.677 285.915V287.592L372.516 288.431H373.355V290.108V292.623H374.194H375.033L375.872 291.785L378.389 292.623L379.228 294.3L380.067 295.138H380.906L381.745 294.3L383.423 293.462C385.101 293.462 386.779 293.462 388.457 293.462L390.135 290.946L391.813 290.108L392.652 288.431L394.33 289.269L393.491 287.592L394.33 285.077L396.008 283.4V282.562L399.364 281.723L401.881 280.046V278.369V276.692L405.237 275.854L410.271 276.692L412.788 275.015H413.627L415.305 273.338L416.144 272.5L417.822 273.338H418.661L419.5 276.692L421.178 278.369L423.695 280.046L425.373 281.723H427.051L427.89 282.562L429.568 283.4L430.407 285.077H431.246C432.085 285.915 432.085 287.592 432.924 288.431L431.246 289.269L430.407 290.946V291.785H431.246L432.085 289.269H432.924V287.592L431.246 286.754L432.085 285.077L433.763 285.915L435.441 287.592L436.28 286.754V285.915L434.602 284.238C432.924 283.4 432.085 282.562 430.407 282.562L431.246 281.723L430.407 280.885H428.729L426.212 278.369L425.373 275.854L422.856 272.5L422.017 270.823V269.985V268.308L423.695 267.469L425.373 268.308C425.373 268.308 425.373 268.308 424.534 268.308V269.146L425.373 269.985L426.212 268.308L427.89 269.146V269.985L428.729 271.662H427.89L429.568 274.177L432.085 275.015L433.763 275.854C434.602 276.692 436.28 276.692 437.119 277.531L437.958 278.369H438.797V279.208V280.046V282.562V284.238L440.475 285.077V285.915V286.754C441.314 287.592 442.153 288.431 442.992 290.108V291.785L443.831 294.3L445.509 295.977H447.187L446.348 293.462H448.026L447.187 291.785L449.704 292.623V290.946L448.865 290.108L447.187 288.431L448.026 287.592L447.187 285.915L446.348 284.238L447.187 283.4L448.026 285.077H449.704L450.543 284.238L448.865 282.562L451.382 281.723H452.221H453.899V282.562L454.738 284.238C455.577 283.4 456.416 282.562 458.094 281.723H460.611L461.45 280.885L459.772 280.046V279.208L458.933 277.531L459.772 275.015L460.611 273.338L461.45 269.146H462.289L463.128 268.308V267.469L464.806 264.954L465.645 263.277L468.162 262.438V264.115L471.518 264.954L472.357 265.792L469.84 267.469V268.308L472.357 269.146L471.518 270.823L473.196 271.662L476.552 269.985L479.069 269.146L479.908 268.308H477.391L476.552 267.469V265.792L478.23 264.115H480.747L482.425 263.277H484.103L486.62 262.438V263.277L481.586 264.115L483.264 265.792L481.586 268.308L479.908 269.146L481.586 270.823L484.103 271.662L487.459 274.177L488.298 275.015H489.976L491.654 275.854L492.493 278.369V280.046L489.976 281.723H488.298L485.781 282.562L479.908 280.885L475.713 278.369H471.518L469.84 280.046L467.323 281.723H463.128L461.45 284.238H458.094L455.577 286.754L457.255 288.431L456.416 290.946L458.094 292.623L459.772 295.138H462.289L464.806 296.815H466.484L467.323 295.977H469.84L471.518 297.654H474.874L476.552 295.977L478.23 296.815H479.908L479.069 297.654H478.23L477.391 298.492V301.008L476.552 302.685L475.713 305.2V306.038L474.874 307.715L474.035 309.392L473.196 310.231L472.357 311.069H470.679L469.001 310.231L468.162 311.069L467.323 309.392H465.645H463.967L463.128 310.231L461.45 311.908C459.772 311.069 458.094 310.231 455.577 310.231H452.221L451.382 309.392H448.865L448.026 308.554H447.187L446.348 307.715L443.831 306.038H442.153L440.475 307.715L439.636 309.392L440.475 311.908L439.636 312.746L438.797 313.585L436.28 311.908L432.924 311.069L430.407 310.231L429.568 307.715L426.212 306.877L424.534 306.038H423.695L421.178 305.2H419.5V303.523H418.661L417.822 301.846L419.5 300.169V297.654H418.661V295.977L419.5 294.3V293.462L417.822 294.3V292.623H416.144L413.627 293.462H411.949L411.11 294.3H408.593L406.076 295.138L405.237 294.3C402.72 294.3 400.203 294.3 397.686 295.138L395.169 295.977L393.491 297.654L390.974 298.492L388.457 300.169H387.618L385.101 299.331H382.584L381.745 297.654H380.067L379.228 299.331L377.55 302.685L375.872 303.523L373.355 305.2L371.677 306.877V308.554L370.838 311.069L371.677 314.423L369.16 316.1L368.321 316.938L366.643 318.615H364.126L363.287 319.454L361.609 322.808L359.931 323.646L359.092 325.323V327L358.253 328.677H357.414L355.736 330.354L354.897 332.031V332.869L354.058 334.546L353.219 335.385C353.219 336.223 353.219 337.061 353.219 337.9L354.058 338.738L354.897 339.577V340.415V341.254V343.769V346.285V347.962V349.638L354.058 350.477L353.219 352.154L352.38 352.992L353.219 353.831L354.058 355.508V356.346V358.023V358.862L354.897 359.7L355.736 360.538H356.575L357.414 361.377H358.253V362.215V363.054L359.092 363.892H359.931L360.77 364.731L361.609 366.408V368.085V368.923L362.448 370.6L364.126 371.438H364.965L366.643 373.115L368.321 374.792L370.838 376.469L373.355 377.308H374.194H375.033C376.711 376.469 377.55 376.469 379.228 375.631H381.745H383.423L385.101 376.469H385.94L387.618 377.308L390.135 376.469L391.813 375.631L395.169 373.954L396.847 373.115H398.525C400.203 373.115 401.042 373.115 402.72 373.115L404.398 374.792L405.237 376.469L406.076 378.146H407.754L408.593 377.308H409.432L411.949 376.469V377.308H412.788L413.627 378.146H414.466L415.305 379.823V381.5L414.466 384.015H415.305C415.305 384.854 414.466 386.531 414.466 387.369V389.885V390.723L416.144 393.238L417.822 394.915L420.339 397.431L422.017 399.946L422.856 401.623V402.462V403.3L423.695 404.977C423.695 406.654 424.534 407.492 424.534 409.169L423.695 410.008V410.846C423.695 411.685 424.534 412.523 424.534 413.362L425.373 414.2V415.877V417.554L424.534 418.392L422.856 420.069L422.017 420.908L421.178 423.423V424.262L420.339 426.777V429.292C420.339 430.131 420.339 431.808 420.339 432.646L422.017 435.162L422.856 436.838L423.695 440.192L424.534 441.869L425.373 442.708V444.385V447.738L426.212 451.931L427.051 453.608L427.89 456.123L428.729 457.8L430.407 459.477C432.085 461.992 432.924 465.346 434.602 467.862V470.377L433.763 471.215L434.602 472.892V474.569V475.408L435.441 477.085H436.28L437.119 477.923H437.958L439.636 477.085L441.314 476.246L443.831 475.408H444.67H446.348L448.865 476.246L449.704 475.408H451.382V474.569H452.221L454.738 473.731L456.416 472.054C458.094 470.377 458.933 468.7 460.611 467.862L462.289 466.185L463.128 464.508L463.967 462.831C464.806 461.992 465.645 461.992 465.645 461.154L469.84 456.962V454.446L470.679 452.769V451.092H469.84V450.254L470.679 449.415C472.357 448.577 474.035 447.738 475.713 446.9L476.552 446.061V445.223L475.713 444.385V443.546V441.031V440.192L474.874 438.515L474.035 436.838V435.162L474.874 434.323L476.552 432.646L477.391 431.808L479.908 429.292C481.586 428.454 483.264 427.615 484.942 426.777L486.62 425.1L487.459 423.423L488.298 421.746V420.908V417.554V415.038V412.523V411.685L487.459 410.846L486.62 409.169L485.781 407.492V406.654V405.815L486.62 404.138V403.3L484.942 402.462V400.785L485.781 398.269H486.62L487.459 396.592L488.298 395.754V394.077H489.137L489.976 393.238L491.654 392.4L492.493 391.561L493.332 390.723L495.849 388.208L498.366 386.531L501.722 384.015L504.239 382.338C505.917 380.662 507.595 378.146 509.273 376.469L510.951 373.115C511.79 371.438 512.629 369.762 513.468 367.246L514.307 364.731L515.146 363.892V363.054V361.377V360.538H514.307H511.79H510.951H510.112C509.273 360.538 508.434 360.538 508.434 360.538L507.595 361.377H506.756L505.078 362.215H502.561L500.044 363.054H499.205L498.366 362.215L497.527 361.377C496.688 361.377 496.688 360.538 495.849 360.538L497.527 359.7V358.862L495.01 358.023L494.171 357.185C493.332 356.346 491.654 354.669 490.815 353.831L486.62 351.315L484.942 350.477V347.962L483.264 345.446C482.425 344.608 481.586 344.608 480.747 343.769L479.908 340.415V337.9L480.747 337.062L479.908 334.546V333.708L477.391 331.192V329.515L478.23 328.677L475.713 326.162L474.874 324.485L474.035 322.808L472.357 318.615L470.679 316.1L469.001 314.423L470.679 318.615C471.518 319.454 471.518 320.292 472.357 320.292L473.196 319.454L474.035 317.777L474.874 316.1L475.713 315.262V316.1V316.938V318.615H476.552C477.391 320.292 478.23 321.131 479.069 322.808L479.908 324.485L480.747 325.323L481.586 327V327.838L482.425 329.515L484.103 330.354L484.942 331.192L486.62 333.708V335.385V337.062L488.298 339.577H489.137L490.815 341.254L491.654 342.931L492.493 344.608L493.332 345.446V346.285L494.171 347.123V347.962V348.8V349.638V350.477H493.332L494.171 351.315L495.01 352.992V353.831V355.508L495.849 357.185H497.527H498.366H499.205V356.346H500.044L500.883 355.508H501.722H503.4L505.078 354.669L506.756 353.831H507.595H508.434L510.112 352.154L513.468 351.315L515.985 350.477V349.638L516.824 348.8L518.502 347.962H519.341L521.019 347.123H522.697L523.536 346.285V345.446L524.375 344.608H526.053L526.892 343.769V342.931L528.57 342.092H529.409V340.415V338.738L530.248 337.9H531.087L531.926 336.223L532.765 335.385C532.765 334.546 533.604 333.708 533.604 332.869V332.031H532.765C531.926 331.192 531.926 330.354 531.087 329.515L529.409 328.677H527.731L526.053 327.838L525.214 326.162V324.485V323.646V322.808L524.375 323.646C522.697 325.323 521.019 327 519.341 328.677C518.502 328.677 516.824 328.677 515.985 328.677H514.307V327.838L513.468 327L514.307 325.323V323.646L513.468 322.808H512.629L511.79 324.485V326.162V325.323V324.485V323.646V322.808L510.112 321.969V321.131L509.273 320.292C508.434 318.615 508.434 317.777 507.595 316.1V315.262L505.917 314.423H507.595L508.434 313.585L510.112 314.423L511.79 313.585L513.468 316.938L515.146 319.454L517.663 320.292L520.18 321.969L522.697 322.808L525.214 321.131L526.892 320.292L527.731 321.131L528.57 324.485H531.087C533.604 325.323 536.121 325.323 537.799 326.162H541.155H545.35L549.545 325.323L551.223 327L552.062 328.677L553.74 329.515L556.257 332.031L557.096 332.869L556.257 333.708L559.613 337.062H561.291L564.647 335.385L565.486 337.9V341.254C566.325 343.769 566.325 346.285 567.164 348.8L569.681 352.154V353.831L570.52 357.185L571.359 359.7L572.198 360.538C573.037 362.215 573.876 364.731 573.876 366.408L576.393 368.923L577.232 368.085L578.071 366.408L580.588 365.569L579.749 364.731L580.588 363.054H581.427V358.862L582.266 356.346V354.669L581.427 351.315L582.266 349.638H583.105L585.622 348.8L586.461 347.962V347.123L588.978 345.446L590.656 343.769L593.173 341.254L596.529 339.577L597.368 337.9V336.223L599.885 335.385H601.563V334.546H602.402H603.241V333.708L604.08 334.546L604.919 332.869V332.031H607.436L608.275 333.708L609.114 334.546V336.223L609.953 337.9L611.631 339.577H613.309V340.415L614.987 342.931L615.826 345.446L614.987 348.8L616.665 349.638H618.343L620.86 347.962L622.538 347.123L623.377 348.8L624.216 352.154L625.055 354.669L625.894 355.508V358.023L626.733 359.7L625.894 361.377V363.054L625.055 365.569V367.246L625.894 368.923V367.246C626.733 368.085 627.572 368.923 628.411 369.762V370.6L629.25 371.438L630.089 372.277V373.954L630.928 375.631V377.308L632.606 378.985V379.823L635.123 381.5L637.64 383.177H639.318V382.338L636.801 381.5H635.962V379.823V378.985V378.146V376.469L635.123 374.792L633.445 373.115H632.606L631.767 372.277H630.089L629.25 370.6L628.411 368.923L627.572 366.408H625.894V364.731C626.733 363.054 627.572 361.377 627.572 358.862V356.346H629.25V358.023H630.928L633.445 358.862L634.284 361.377L635.123 362.215H636.801L638.479 363.892L637.64 365.569L638.479 367.246L640.996 364.731L642.674 363.054L645.191 361.377L646.869 359.7V355.508L646.03 351.315L644.352 349.638L645.191 347.962C643.513 346.285 642.674 343.769 640.996 342.092L641.835 340.415L643.513 337.9L646.869 335.385H647.708L651.064 336.223L650.225 337.062L651.064 338.738H652.742L653.581 336.223H656.098L659.454 334.546L661.132 333.708L661.971 334.546L663.649 333.708H666.166C668.683 332.031 670.361 330.354 672.878 329.515L675.395 326.162C676.234 323.646 677.912 321.969 678.751 320.292H680.429L681.268 317.777V315.262L679.59 314.423L678.751 312.746L680.429 311.908V310.231L678.751 307.715L677.073 305.2L676.234 302.685L673.717 301.008L674.556 299.331L677.073 297.654L677.912 295.977L681.268 295.138V293.462H679.59L677.912 292.623L675.395 295.138L673.717 294.3V292.623L672.039 291.785L668.683 289.269L669.522 287.592H672.039L673.717 285.915L676.234 283.4L677.912 282.562L678.751 284.238L677.073 285.915L677.912 286.754L677.073 288.431L679.59 287.592L681.268 285.915L684.624 285.077L685.463 285.915H687.141V286.754V289.269V290.108H686.302L685.463 291.785L686.302 292.623H687.141V293.462H687.98V292.623L688.819 293.462L690.497 295.977L688.819 296.815L689.658 300.169L688.819 302.685V304.362H691.336L693.014 303.523L695.531 302.685L696.37 301.008V297.654V293.462L694.692 289.269L693.014 287.592L692.175 286.754V285.077L693.014 284.238L694.692 283.4L695.531 282.562V281.723L696.37 280.885V278.369L697.209 277.531L698.048 276.692H698.887V275.854L702.243 273.338L703.921 275.015H705.599L708.955 273.338C711.472 269.985 713.989 266.631 716.506 264.115L717.345 261.6L720.701 256.569L721.54 250.7V246.508L723.218 242.315V238.962L721.54 236.446H719.023L717.345 238.123L714.828 237.285L713.989 234.769L710.633 233.931C716.506 228.062 721.54 221.354 727.413 215.485L734.964 213.808L742.515 214.646L745.032 212.131L748.388 212.969V216.323L751.744 215.485L756.778 214.646L755.1 212.131L760.973 203.746L766.846 202.069L768.524 207.938L771.041 205.423L774.397 202.069L776.075 197.877L778.592 197.038L776.914 205.423L772.719 209.615C770.202 212.969 766.846 216.323 764.329 219.677L760.973 220.515V222.192L759.295 224.708L758.456 230.577C759.295 235.608 760.134 240.638 760.973 244.831L761.812 247.346L765.168 243.992L766.007 239.8L769.363 238.962L770.202 234.769L771.88 233.931L774.397 233.092L773.558 231.415L774.397 228.062H776.914V222.192L774.397 221.354V219.677L776.914 215.485L777.753 212.131L781.109 212.969L783.626 211.292L784.465 212.969L790.338 209.615L793.694 212.969L794.533 210.454C797.05 208.777 799.567 206.262 801.245 203.746L802.923 202.908L809.635 199.554L813.83 200.392L814.669 198.715V196.2L813.83 194.523L812.152 190.331L809.635 187.815H812.991L815.508 185.3L816.347 184.462L817.186 182.785L816.347 180.269L818.864 178.592L818.025 181.108L819.703 182.785L822.22 181.946L824.737 182.785L825.576 185.3L828.932 186.977L830.61 188.654H833.127L833.966 187.815V182.785L838.161 181.946L839 180.269L834.805 174.4Z" fill="#FFEAEA"/>
</svg>
