<svg width="24" height="24" viewBox="0 0 24 24" fill="none" xmlns="http://www.w3.org/2000/svg">
<path fill-rule="evenodd" clip-rule="evenodd" d="M8.10355 3.89643C7.90829 4.09169 7.90829 4.40828 8.10355 4.60354L8.14645 4.64643C8.34171 4.84169 8.65829 4.84169 8.85355 4.64643L11.5 1.99999V15.5C11.5 15.7761 11.7239 16 12 16C12.2761 16 12.5 15.7761 12.5 15.5V1.99999L15.1464 4.64643C15.3417 4.84169 15.6583 4.84169 15.8536 4.64643L15.8964 4.60354C16.0917 4.40828 16.0917 4.09169 15.8964 3.89643L12.3536 0.353539C12.1583 0.158277 11.8417 0.158277 11.6464 0.353539L8.10355 3.89643ZM3 8.49999C3 8.22384 3.22386 7.99999 3.5 7.99999H9C9.27614 7.99999 9.5 8.22384 9.5 8.49999C9.5 8.77613 9.27614 8.99999 9 8.99999H4V22H20V8.99999H15C14.7239 8.99999 14.5 8.77613 14.5 8.49999C14.5 8.22384 14.7239 7.99999 15 7.99999H20.5C20.7761 7.99999 21 8.22384 21 8.49999V22.5C21 22.7761 20.7761 23 20.5 23H3.5C3.22386 23 3 22.7761 3 22.5V8.49999Z" fill="white"/>
</svg>
