<svg width="32" height="32" viewBox="0 0 32 32" fill="none" xmlns="http://www.w3.org/2000/svg">
<g>
<path d="M27.3137 4.68625C24.2917 1.66431 20.2738 0 16 0C11.7262 0 7.70831 1.66431 4.68625 4.68625C1.66431 7.70831 0 11.7262 0 16C0 20.2738 1.66431 24.2917 4.68625 27.3137C7.70831 30.3357 11.7262 32 16 32C18.9258 32 21.7886 31.2026 24.2789 29.6942C24.8693 29.3364 25.0581 28.5678 24.7004 27.9774C24.3426 27.3868 23.574 27.1981 22.9836 27.5559C20.884 28.8278 18.4691 29.5 16 29.5C8.55606 29.5 2.5 23.4439 2.5 16C2.5 8.55606 8.55606 2.5 16 2.5C23.4439 2.5 29.5 8.55606 29.5 16C29.5 18.6618 28.7084 21.2528 27.2109 23.4928C26.8272 24.0666 26.9814 24.8429 27.5553 25.2266C28.1292 25.6104 28.9055 25.4561 29.2891 24.8822C31.0626 22.2296 32 19.1581 32 16C32 11.7262 30.3357 7.70831 27.3137 4.68625Z" fill="#FE573F"/>
<path d="M20.6875 18.3125C19.9971 18.3125 19.4375 18.8721 19.4375 19.5625C19.4375 21.4579 17.8954 23 16 23C14.1046 23 12.5625 21.4579 12.5625 19.5625C12.5625 18.8721 12.0029 18.3125 11.3125 18.3125C10.6221 18.3125 10.0625 18.8721 10.0625 19.5625C10.0625 22.8364 12.7261 25.5 16 25.5C19.2739 25.5 21.9375 22.8364 21.9375 19.5625C21.9375 18.8721 21.3779 18.3125 20.6875 18.3125Z" fill="#FE573F"/>
<path d="M21.5625 9.4375C19.8394 9.4375 18.4375 10.8394 18.4375 12.5625C18.4375 13.2529 18.9971 13.8125 19.6875 13.8125C20.3779 13.8125 20.9375 13.2529 20.9375 12.5625C20.9375 12.2179 21.2179 11.9375 21.5625 11.9375C21.9071 11.9375 22.1875 12.2179 22.1875 12.5625C22.1875 13.2529 22.7471 13.8125 23.4375 13.8125C24.1279 13.8125 24.6875 13.2529 24.6875 12.5625C24.6875 10.8394 23.2856 9.4375 21.5625 9.4375Z" fill="#FE573F"/>
<path d="M10.5 9.4375C8.77688 9.4375 7.375 10.8394 7.375 12.5625C7.375 13.2529 7.93463 13.8125 8.625 13.8125C9.31537 13.8125 9.875 13.2529 9.875 12.5625C9.875 12.2179 10.1554 11.9375 10.5 11.9375C10.8446 11.9375 11.125 12.2179 11.125 12.5625C11.125 13.2529 11.6846 13.8125 12.375 13.8125C13.0654 13.8125 13.625 13.2529 13.625 12.5625C13.625 10.8394 12.2231 9.4375 10.5 9.4375Z" fill="#FE573F"/>
</g>
</svg>
